<?xml version="1.0" encoding="utf-8"?>
<!-- Generator: Adobe Illustrator 16.0.4, SVG Export Plug-In . SVG Version: 6.00 Build 0)  -->
<!DOCTYPE svg PUBLIC "-//W3C//DTD SVG 1.1//EN" "http://www.w3.org/Graphics/SVG/1.1/DTD/svg11.dtd">
<svg version="1.1" xmlns="http://www.w3.org/2000/svg" xmlns:xlink="http://www.w3.org/1999/xlink" x="0px" y="0px" width="500px"
	 height="500px" viewBox="0 0 500 500" enable-background="new 0 0 500 500" xml:space="preserve">
<g id="Layer_1">
	<g id="Layer_4">
		<g>
			<path fill="#342B3A" d="M318.315,98.979c1.147,0.348,2.316,0.641,3.429,1.073c0.438,0.171,0.756,0.656,1.129,0.997
				c-3.95,1.933,2.082,5.005-0.993,7.701c-1.51,1.323,0.688,3.464,3.105,3.68c1.396,0.125,3.247-1.083,4.112,0.453
				c1.868,3.319,5.971,5.037,6.561,9.196c0.997,7.034,4.141,12.295,11.274,14.706c1.83,0.617,3.634,1.505,3.559,4.488
				c-0.059,2.237,2.719,3.211,4.798,4.047c3.053,1.229,3.43,2.719,1.237,5.137c-0.647,0.713-0.698,1.567-0.229,2.19
				c1.324,1.761,4.456,3.628-0.678,4.469c-0.166,0.029,1.182,2.397-1.146,3.014c-1.066,0.282-1.793,1.823-2.256,3.523
				c2.565-0.232,5.139-0.388,5.101,3.564c2.051-1.922,3.553-3.11,5.249-0.561c0.698,1.048,0.555,1.655-0.191,2.387
				c-5.986,5.86-7.79,10.714-8.253,17.984c-0.067,1.041,0.229,2.428-1.174,2.575c-1.291,0.138-2.575-1.046-2.56-2.1
				c0.071-4.789-1.971-8.985-3.3-13.383c-0.074-0.244-0.024-0.531-0.015-0.797c0.418-9.165-1.632-12.493-10.165-17.324
				c-2.126-1.206-4.763-2.672-1.17-5.598c1.973-1.608,0.433-2.693-1.37-3.253c-3.013-0.936-5.229-3.062-7.385-5.194
				c-0.821-0.811-2.356-1.786-0.656-3.249c0.909-0.782,0.209-1.2-0.446-1.319c-2.813-0.52-3.266-2.871-4.58-4.859
				c-1.126-1.708-4.091-2.597-6.395-3.02c-2.266-0.415-4.715,0.495-7.087-0.246c-4.868-1.52-8.878,1.492-13.23,2.644
				c-0.986,0.261-1.752,0.136-2.674-0.063c-2.136-0.462-4.588-0.397-6.199,0.79c-3.723,2.744-7.606,1.294-11.516,1.443
				c-9.805,0.376-19.473,1.72-28.136,6.909c-0.449,0.269-0.968,1.051-1.196,0.957c-5.086-2.065-7.301,3.475-11.43,4.308
				c-4.042,0.815-7.479,3.79-11.562,5.014c-0.806,0.24-1.958,1.086-2.025,1.745c-0.426,4.291-2.784,8.181-2.479,12.612
				c0.242,3.532,0.66,7.034-0.033,10.613c-0.525,2.71-1.026,5.797,2.816,7.351c0.181-0.806,0.291-1.438,0.469-2.049
				c0.249-0.853,0.269-2.213,1.518-1.926c1.813,0.418,0.233,1.333,0.082,2.056c-0.258,1.215,0.622,1.953,1.259,2.786l0.045-0.064
				c-1.823,1.409-2.728,4.752-6.035,2.76c-0.853,1.131,0.403,1.77,0.361,2.668c-0.137,2.859-2.566,3.951-6.047,1.814
				c-1.532-0.94-2.384-0.619-3.461-0.178c-3.546,1.449-6.386,7.24-5.406,10.759c0.104,0.377,0.154,0.769,0.229,1.153
				c-4.863,0.167-1.656,6.902-6.252,7.603c-1.561,0.24-1.575,1.212-0.685,3.49c2.416,6.187,9.301,4.457,12.515,8.543
				c0.205,0.261,0.812,0.463,1.105,0.354c4.101-1.535,6.973,1.43,10.266,2.784c1.56,0.639,5.02-1.727,3.913,2.66
				c1.612,0.033,1.652-2.239,1.875-1.671c1.262,3.205,4.923,1.674,6.699,3.779c1.037,1.227,2.377,2.752,4.423,1.306
				c0.681-0.48,1.279-0.23,1.542,0.574c1.803,5.543,2.883,1.025,4.172-0.307c0.262-0.267,0.441-0.614,0.82-1.155
				c1.508,1.884,2.792,3.706,3.593,5.826c0.48,1.273,0.967,2.722,2.215,3.197c3.09,1.178,3.916,3.186,2.506,6.465
				c3.825-1.27,5.129,0.045,4.385,3.503c-0.463,2.143,0.062,3.891,2.412,4.192c2.66,0.34,5.55,1.366,7.762-1.362
				c0.728-0.9-0.639-3.63,2.352-2.716c0.273,0.083,0.011-1.203-0.411-1.643c-1.081-1.131-2.255-2.171-3.342-3.197
				c2.83-3.774,7.835-3.143,10.977-6.196c1.076-1.05,3.61-1.093,5.373-0.842c3.944,0.561,7.622-1.205,11.246-1.226
				c7.053-0.038,14.286-1.614,21.246,0.892c2.146,0.771,1.303,4.025,3.699,4.665l-0.044-0.08c0.054,0.661,0.356,1.432,0.124,1.969
				c-1.634,3.719,0.634,5.021,3.5,4.613c6.01-0.853,10.881,3.03,16.583,3.367c2.872,0.17,5.812,0.636,8.671,0.85
				c4.457,0.333,7.942,1.711,10.466,5.395c-0.435,0.475-0.587,1.122-0.99,1.616c0.396-0.514,0.597-1.136,0.914-1.695
				c1.272,1.001,1.558,2.435,1.663,3.919c0.6,8.358-0.81,16.236-5.537,23.327c-0.297-0.037-0.69,0.015-0.757-0.11
				c-2.401-4.384-2.368-4.314-5.449-0.465c-2.32,2.896-3.468,6.686-6.671,8.887c-5.771,3.965-12.43,5.401-19.191,6.073
				c-7.652,0.763-15.45,0.733-22.957-0.668c-5.545-1.034-11.176-2.062-16.624-3.634c-2.763-0.8-4.481-3.253-5.907-5.699
				c-3.039-5.203-5.124-10.8-6.718-16.603c-1.055-3.83-3.855-5.853-7.526-6.989c-3.347-1.034-6.048,0.874-7.142,3.097
				c-2.734,5.553-6.792,10.898-5.186,17.82c0.266,1.152,2.194,2.836-0.829,3.769c-0.604,0.188,1.197,3.142,1.919,4.443
				c2.774,4.98,0.003,8.704-1.975,12.613c-0.519,1.025-0.875,1.484-0.359,2.67c0.636,1.46,3.225,1.865,2.184,4.313
				c-0.238,0.563,0.994,0.207,1.599,0.143c2.913-0.31,5.923,0.34,7.763,2.346c3.535,3.855,7.783,4.493,12.515,4.199
				c2.093-0.13,3.98,0.141,5.269,2.081c1.302,1.959-0.734,2.744-1.271,4.092c-0.993,2.491-1.636,5.864-4.19,6.452
				c-5.938,1.369-7.331,6.318-9.71,10.573c-1.208,2.162-2.699,3.233-5.193,2.293c-1.137-0.427-2.33-0.736-3.518-0.355
				c-1.368,0.437-3.477,0.973-2.907,2.604c0.71,2.043,2.085,0.214,3.16-0.285c0.435-0.203,0.956-0.223,1.438-0.325
				c0.307,3.928,3.55,2.032,5.188,2.175c6.742,0.597,13.006,3.466,19.851,3.639c4.812,0.119,9.085,0.791,13.266-3.188
				c2.931-2.786,8.002-3.23,12.066-3.058c2.644,0.11,2.301,3.748,1.678,6.312c-1.29,5.297-2.906,10.44-6.407,14.934
				c-3.366-3.109-7.055-6.372-12.33-6.644c-0.654-0.033-1.524-0.462-1.924-0.181c-4.452,3.131-9.58,1.362-14.35,2.099
				c-0.786,0.12-1.685,0.07-2.336,0.443c-1.759,1.004-4.712,1.595-4.177,4.052c0.478,2.18,3.255,1.25,4.959,1.165
				c2.367-0.117,4.436-0.775,2.693,2.906c-0.72,1.521,0.033,2.828,2.052,2.905c1.16,0.045,2.095,0.56,2.197,1.866
				c0.093,1.198-0.627,1.905-1.575,2.562c-3.501,2.431-7.227,4.402-9.063,8.847c-1.997,4.829-7.206,4.195-11.163,4.332
				c-5.52,0.191-8.502,4.872-13.288,6.19c-1.763,0.484-0.948,2.56-0.377,3.869c0.892,2.041,1.967,4.005,3.023,5.969
				c0.151,0.283,0.816,0.631,0.929,0.546c2.617-2.028,4.766,0.775,6.652,0.723c6.469-0.185,11.971,3.064,18.07,3.829
				c0.965,0.12,2.189,0.327,2.646-0.396c1.933-3.074,5.007-2.862,7.987-3.294c2.062-0.297,3.71-1.758,4.46-3.658
				c1.839-4.665,3.805-9.122,7.676-12.615c1.848-1.668,1.248-3.084-0.867-4.221c-0.467-0.251-0.867-1.073-0.883-1.647
				c-0.076-2.84,2.332-4.727,3.003-7.371c0.263-1.031,4.003,0.866,3.947,2.612c-0.061,1.962-0.6,3.675,2.246,4.047
				c2.594,0.337,4.762,0.261,5.432-2.813c1.39,0.576,1.089,2.55,3.387,2.278c-0.037-0.454,4.986-14.645,5.604-14.939l0.221-0.215
				c0.462-0.44,0,0,0,0c-0.84,0.596,0.095,6.743,4.796,4.528c2.428-1.143,0.647-3.275,1.25-4.895
				c0.082-0.216-0.027-0.524-0.099-0.774c-0.409-1.413-3.126,1.851-2.523-1.154c0.228-1.144,1.776-1.965,2.288-3.124
				c0.457-1.034,0.329-2.331,0.423-3.515c0.075-0.932-0.025-2.163,1.156-2.229c1.518-0.085,1.25,1.454,1.515,2.38
				c0.369,1.286-0.503,2.272-1.046,3.329c-0.369,0.713-0.776,1.55-0.13,2.225c0.75,0.785,1.46,0.06,2.091-0.369
				c3.292-2.24,5.742-1.188,7.683,1.926c0.498,0.8,1.004,1.771,2.129,1.361c1.257-0.463,1.213-1.675,1.002-2.735
				c-0.476-2.417-2.095-4.285-3.272-6.357c-0.744-1.307-1.616-2.627-1.047-4.108c1.562-4.072,3.21-8.118,4.983-12.104
				c0.936-2.104,3.104-2.202,4.851-1.696c2.166,0.625,3.615,2.517,3.677,4.772c0.105,3.769,2.426,6.893,2.603,10.671
				c0.12,2.597,2.769,3.281,5.185,4.309c0.113-3.186,0.304-6.274-0.878-9.032c-1.226-2.86,0.418-4.298,2.097-5.772
				c1.862-1.635,4.085-2.035,6.267-0.629c1.218,0.784,2.539,1.698,3.27,2.888c1.682,2.742,4.271,3.796,7.097,3.675
				c3.74-0.161,5.668,2.091,7.631,4.556c3.466,4.347,6.438,8.603,7.236,14.643c0.819,6.21,6.722,8.403,12.331,9.866
				c1.797,0.467,3.696,0.655,5.394,1.353c2.606,1.071,2.811,3.328,2.912,5.954c0.1,2.685-1.401,3.272-3.229,3.508
				c-2.883,0.372-2.835,3.48-4.746,4.786c-0.399,0.271,0.391,2.455,1.668,2.735c2.279,0.505,4.104,1.886,6.191,2.743
				c1.627,0.668,2.815,0.862,3.958-1.112c0.938-1.619,4.753-0.02,5.385-2.639l-0.687-0.44c0.884,0.794,1.793,0.715,2.37-0.255
				c3.214-5.392,8.959-3.657,13.551-4.347c3.717-0.558,4.681,3.395,2.367,7.217c-9.808,16.205-23.403,28.848-37.996,40.525
				c-28.662,22.937-61.069,37.885-97.073,44.984c-5.192,1.025-10.406,2.14-16.147,2.04c3.004-6.428,2.725-13.862,7.02-19.914
				c1.284-1.809,0.778-4.649,2.444-6.599c0.49-0.573,0.479-1.673-0.316-2.141c-1.152-0.676-2.17,0.093-2.734,0.958
				c-2.27,3.488-5.748,5.938-8.052,9.332c-4.522,6.668-10.72,11.819-15.816,17.956c-2.013,2.422-4.838,2.652-7.667,2.589
				c-46.406-1.023-89.067-13.806-127.232-40.633c-25.728-18.085-46.969-40.429-63.552-67.171c-0.489-0.789-0.939-1.606-1.361-2.434
				c-0.172-0.338-0.217-0.741-0.312-1.082c1.293-0.249,2.524-0.626,3.765-0.67c0.699-0.023,1.632,0.873,1.939-0.317
				c0.289-1.131-0.762-1.932-1.646-1.791c-7.112,1.15-9.005-4.391-11.402-8.979c-13.091-25.064-21.881-51.522-26.062-79.551
				c-1.811-12.145-2.963-24.356-2.86-36.55c0.138-16.055,1.639-32.069,4.806-47.889c7.453-37.243,22.531-71.06,45.515-101.271
				c17.352-22.808,38.253-41.778,62.736-56.767c14.693-8.995,30.152-16.315,46.498-21.769c2.402-0.802,4.797-1.434,7.8-0.964
				c-1.328,1.753-2.524,3.541,0.251,4.742c-0.729,1.557,2.613,4.155-1.235,4.891c-0.644,0.123-1.148,0.417-0.834,0.974
				c1.588,2.837-0.575,5.109-1.036,7.63c-0.228,1.246-0.162,2.41,1.022,3.206c1.247,0.841,1.857,0.295,2.358-0.943
				c0.283-0.702,1.434-0.892,1.662-0.365c1.187,2.734,4.923,1.648,6.25,4.708c1.005,2.314,3.675,1.563,5.402-0.167
				c1.65-1.652,3.175-2.558,5.599-1.191c2.198,1.24,3.779-0.305,4.135-2.297c1.144-6.401,5.066-7.814,10.917-7.079
				c3.407,0.43,6.784-0.634,10.022-1.967c2.5-1.029,5.017-0.685,7.107,1.133c0.65,0.565,1.457,1.681,1.29,2.304
				c-0.327,1.214-1.724,1.001-2.743,0.883c-1.027-0.119-2.14,0.236-3.234-0.553c1.654,3.197,1.955,6.713,4.479,9.556
				c1.359,1.529,2.346,2.449,4.106,1.93c1.905-0.562,3.802-1.435,3.655-4.041c-0.027-0.479,0.259-0.976,0.412-1.504
				c5.628,3.197,10.111,8.306,16.715,9.087c4.716,0.559,9.055,2.465,13.702,3.082c1.604,0.212,2.758,0.85,3.635,2.121
				c0.836,1.207,1.605,2.475,3.113,2.978l-0.016-0.063c-2.5,6.017,0.825,10.556,3.879,15.137c2.778,4.173,7.08,7.986,8.055,12.526
				c0.991,4.633,3.001,3.562,5.612,3.353c0.828-0.066,1.566-0.132,2.085,0.71c0.524,0.859,1.462,1.644,2.243,0.821
				c1.015-1.07-0.241-1.902-0.973-2.568c-0.575-0.522-1.361-0.808-2.039-1.221c-0.646-0.39-1.682-0.745-0.799-1.699
				c0.611-0.662,2.258-1.251,2.387-0.548c0.639,3.527,4.955,3.031,6.036,5.89l-0.277,0.266L318.315,98.979z"/>
			<path fill="#342B3A" d="M433.831,357.768c4.525-1.278,7.521,1.548,10.624,4.009c1.274,1.015,1.153,2.172-0.362,2.706
				c-0.737,0.262-2.871-2.106-1.856,1.012c0.488,1.504,1.95,2.156,3.544,1.056c0.399-0.273,0.485-0.98,1.475-0.805
				c0.194,3.34,2.394,5.196,5.418,6.314l-0.082,0.044c2.452,1.354,1.998,1.117,1.087,2.874c-2.435,4.689-4.464,1.842-6.613-0.05
				c-6.462-5.681-14.762-6.222-22.566-8.27c-14.662-3.842-29.7-5.876-44.407-9.479c-1.23-0.304-2.133-1-3.087-1.73
				c-9.892-7.595-21.139-12.229-33.274-14.604c-3.202-0.627-3.984-1.905-3.496-4.752c0.784-4.58,1.038-9.283,3.231-13.523
				c0.486-0.94,0.83-2.197,1.627-2.701c8.104-5.14,10.006-14.083,13.502-21.991c1.972-4.453,3.598-9.093,4.547-13.914
				c0.144-0.734-0.013-1.406,1.358-1.243c4.578,0.541,7.473-1.903,7.665-6.21c0.076-1.705,0.567-3.553,1.936-4.189
				c3.354-1.562,2.46-3.984,1.368-6.087c-0.988-1.913-1.024-3.231,0.69-4.462c0.969-0.694,1.315-1.568,1.335-2.725
				c0.024-1.436,1.019-2.432,2.28-2.285c4.274,0.495,9.172-1.212,12.646,2.306c3.293,3.335,8.024,5.344,9.418,10.591
				c0.69,2.608,3.175,1.349,4.746,0.596c3.272-1.567,5-1.331,7.789,0.382c2.506,1.541,4.157,3.897,6.391,5.676
				c1.72,1.371,4.76,3.717-1.162,3.846c2.841,2.475,5.124,4.506,6.997,7.099c1.022,1.413,3.73,1.686,4.243,3.732
				c0.805,3.208,1.182,6.523,1.73,9.794c1.435,8.548-0.087,17.381,2.475,25.82c0.2,0.653,0.366,1.241-0.215,1.825
				c-2.672,2.675-9.56,4.012-13.209,2.345c-1.516-0.691-3.036-0.819-5.225-1.026c1.065,5.24,4.277,8.799,7.912,11.836
				c1.438,1.198,2.861,2.113,2.621,4.001c-0.351,2.753,1.139,4.562,3.079,5.709c2.634,1.556,3.589,3.755,3.854,6.53
				c-0.237-0.095-0.48-0.114-0.729-0.057C433.34,357.692,433.572,357.694,433.831,357.768z"/>
			<path fill="#342B3A" d="M302.146,330.713c3.426-2.215,5.16,0.882,6.892,2.569c3.061,2.979,5.421,3.213,8.063-0.041
				c0.969-1.191,1.52-2.812,3.605-3.511c-1.012,4.026,0.85,5.614,4.47,5.729c2.283,0.072,3.009,0.928,1.34,2.922
				c-1.185,1.42-2.137,3.055-4.375,2.942c-3.236-0.162-5.836,1.465-8.504,3.024c-1.314,0.769-3.881,2.719-2.525-1.552
				c0.516-1.625-0.785-1.717-1.95-1.378c-3.293,0.961-6.372-0.417-7.179-3.895c-0.689-2.966-4.298-4.041-4.176-7.309
				c-4.811-0.128-6.156-4.977-9.557-7.011c-2.486-1.486-1.544-3.648-1.244-5.704c0.12-0.838,0.354-1.772,1.398-1.519
				c1.887,0.454,4.518-0.613,5.267,2.409c0.201,0.813,0.801,1.363,1.621,1.631C300.384,321.691,301.958,325.65,302.146,330.713z"/>
			<path fill="#342B3A" d="M359.963,221.912c-2.38-0.268-1.655-2.847-3.244-3.429c-0.553,5.375-0.161,5.901,4.659,6.249
				c0.058,0.243,0.248,0.616,0.153,0.715c-3.594,3.752-3.64,3.793,0.354,7.542c1.807,1.697,2.777,3.332,0.531,5.299
				c-2.479,2.171-4.202,4.71-4.831,8.025c-0.213,1.119-1.044,2.14-1.671,3.156c-0.582,0.94-1.394,1.735-2.595,1.499
				c-1.509-0.298-1.287-1.615-1.052-2.579c1.396-5.725,0.701-11.753,0.044-17.196c-0.616-5.086,1.869-9.862,0.105-14.749
				c-0.444-1.238-0.203-2.792,1.496-3.223c1.869-0.475,3.472,0.092,4.382,1.867C359.372,217.188,359.659,219.486,359.963,221.912z"
				/>
			<path fill="#342B3A" d="M286.357,303.693c0.684-2.553,2.115-3.241,4.773-2.563c4.225,1.075,8.578,1.635,12.838,2.579
				c1.339,0.297,2.557,1.134,3.807,2.184c-3.59,0.413-6.587,3.517-10.617,1.466c-1.773-0.902-3.699,0.251-5.136,1.404
				c-1.748,1.404-2.579,0.954-2.978-0.998c-0.367-1.777-1.052-3.283-2.761-4.135L286.357,303.693z"/>
			<path fill="#342B3A" d="M398.025,376.063c2.06-0.351,4.324-0.539,6.458-1.167c1.589-0.468,3.126-0.101,3.188,1.191
				c0.086,1.795,1.45,4-0.622,5.546c-2.808,2.094-9.648,0.031-10.927-3.233C395.453,376.691,394.851,375.032,398.025,376.063z"/>
			<path fill="#342B3A" d="M315.185,373.556l0.133-0.181c-1.164,0.171-2.81,0.584-2.703-1.159c0.122-1.936-1.757-2.172-2.201-3.47
				c1.595-2.421,7.743-0.326,6.047-6.032c3.044,0.424,4.111,2.602,1.833,4.729C316.38,369.229,315.721,371.269,315.185,373.556z"/>
			<path fill="#342B3A" d="M309.579,373.54c0.224,1.778-0.603,2.368-2.023,2.351c-1.136-0.013-2.551,0.29-2.576-1.503
				c-0.021-1.55,0.521-2.954,2.264-3.146C308.945,371.053,309.36,372.41,309.579,373.54z"/>
			<path fill="#342B3A" d="M452.591,372.104l0.079-0.048c0.104-0.765,0.101-1.57,0.345-2.29c0.324-0.95,1.077-1.468,2.138-1.259
				c0.665,0.134,1.303,0.46,1.399,1.185c0.169,1.252-0.874,1.419-1.726,1.706C454.086,371.645,453.337,371.869,452.591,372.104z"/>
			<path fill="#342B3A" d="M291.925,66.703c0.641,0.127,1.304,0.188,1.918,0.393c1.217,0.406,2.091,1.134,1.853,2.59
				c-0.107,0.649-0.313,1.484-1.07,1.439c-1.335-0.077-1.343-1.411-1.771-2.311c-0.336-0.708-0.626-1.438-0.94-2.166L291.925,66.703
				z"/>
			<path fill="#342B3A" d="M286.284,303.631c1.879,2.952,0.308,4.13-2.803,4.796c0.135-2.214,1.764-3.334,2.881-4.73
				L286.284,303.631z"/>
			<path fill="#342B3A" d="M317.576,242.88c2.587-1.343,3.187,1.609,4.83,2.296c-2.09,0.2-3.431-1.188-4.871-2.371L317.576,242.88z"
				/>
			<path fill="#342B3A" d="M414.587,403.074"/>
			<path fill="#342B3A" d="M275.217,267.41c1.035,1.654,2.359,3.198,3.05,4.986c2.021,5.219,6.166,6.41,11.114,6.381
				c0.638-0.001,1.541-0.095,1.879,0.266c3.366,3.622,7.486,2.579,11.552,2.031c2.543-0.343,5.06-0.03,7.533,0.521
				c2.193,0.489,4.428,0.027,5.21-1.85c0.918-2.208-1.59-2.503-3.047-3.307c-2.409-1.332-3.283-4.314-6.018-5.521
				c-1.043-0.46,0.165-1.865,1.083-1.707c2.243,0.389,2.497-0.49,2.872-2.517c0.411-2.207,5.619-2.97,7.905-0.892
				c2.81,2.554,5.381,1.056,7.708-0.002c2.22-1.01,2.604-3.351,2.032-5.895c-0.533-2.377,0.73-4.188,3.046-4.956
				c4.966-1.646,12.746,1.857,15.005,6.562c1.094,2.276,0.829,4.77,0.792,7.034c-0.136,8.366-1.829,16.359-7.725,22.858
				c-1.37,1.512-2.915,2.987-4.876,3.336c-6.238,1.104-12.275,2.907-18.842,2.704c-8.571-0.263-16.887-2.032-25.325-2.778
				c-7.516-0.663-15.233-9.225-15.649-16.786c-0.189-3.412-0.034-6.841-0.034-10.26C274.729,267.55,274.974,267.483,275.217,267.41z
				"/>
			<path fill="#342B3A" d="M344.92,432.549c-0.396,4.873-2.337,9.67,0.282,14.473c0.412,0.756,0.082,2.176-0.348,3.08
				c-1.356,2.846-3.119,5.46-3.621,8.722c-0.16,1.054-1.06,2.614-2.69,2.566c-1.781-0.057-2.362-1.487-2.818-2.937
				c-0.037-0.127-0.075-0.255-0.106-0.385c-0.594-2.436-0.743-5.423-3.993-5.712c-3.235-0.286-3.75,2.784-4.656,4.708
				c-6.418-3.769-6.088-11.689-10.643-16.687c-1.575-1.725-0.466-4.112,0.678-5.968c1.747-2.837,1.865-5.559,0.553-8.698
				c-2.137-5.107-2.226-10.298,0.781-15.23c1.162-1.904,2.707-2.759,4.535-0.978c2.834,2.758,6.12,5.228,6.708,9.607
				c0.2,1.484,0.775,3.031,2.625,3c1.851-0.03,1.688-1.866,2.034-3.022c0.657-2.187,0.862-4.67,4.022-4.477
				c2.843,0.175,4.067,1.921,4.633,4.618c0.456,2.184,1.538,4.211,1.629,6.531c0.04,0.989,0.021,2.435,1.104,2.817
				c1.224,0.433,1.663-1.044,2.389-1.738c0.646-0.616,1.174-1.358,1.927-2.254c1.61,3.477,1.704,6.686-0.559,9.292
				C347.521,436.021,347.018,431.963,344.92,432.549z"/>
			<path fill="#342B3A" d="M294.615,429.574c-3.455-1.185-3.176-5.35-6.578-6.237c-0.074-0.02-0.047-0.998,0.154-1.423
				c1.922-4.033,3.274-8.378,6.977-11.39c1.164-0.946,1.797-2.586,2.572-3.965c1.249-2.219,2.631-4.306,4.908-5.597
				c0.825-0.471,1.76-0.801,2.632-0.161c0.927,0.681,0.678,1.637,0.362,2.545c-1.115,3.2-2.076,6.459-3.229,9.641
				c-1.091,3.015-1.506,6.314-3.568,8.925c-0.874,1.105-1.405,3.428-3.891,1.386c-1.196-0.986-2.154,0.261-1.701,1.844
				C293.681,426.628,294.161,428.098,294.615,429.574z"/>
			<path fill="#342B3A" d="M356.801,258.915c-0.167,1.973-0.173,4.023-2.572,4.815c-1.221,0.402-2.334,0.232-3.314-0.594
				c-0.646-0.547-0.95-1.268-0.706-2.106c0.397-1.372,1.537-1.68,2.764-1.783c1.299-0.105,2.604-0.169,3.905-0.25L356.801,258.915z"
				/>
			<path fill="#342B3A" d="M309.706,275.202c-2.636,0.924-3.891,0.07-5.957-0.478C306.137,273.164,307.508,273.63,309.706,275.202z"
				/>
			<path fill="#342B3A" d="M287.803,79.782l0.117-0.123"/>
			<path fill="#342B3A" d="M318.315,98.979c0.176,0.732,0.729,1.504-0.061,2.153c-0.147,0.122-0.858-0.092-0.94-0.299
				c-0.398-1,0.465-1.339,1.084-1.788L318.315,98.979z"/>
			<path fill="#342B3A" d="M414.284,327.998c-0.28-0.571-0.546-0.864-0.542-1.15c0.01-0.712,0.4-1.231,1.142-1.325
				c0.446-0.056,0.796,0.259,0.605,0.685C415.239,326.763,414.809,327.239,414.284,327.998z"/>
			<path fill="#342B3A" d="M433.831,357.768c-1.475-0.103-2.918-0.239-2.945-2.356c1.553,0.206,2.012,1.617,2.974,2.402
				L433.831,357.768z"/>
		</g>
	</g>
	<g id="Layer_2">
	</g>
	<g id="Layer_3">
	</g>
</g>
<g id="Layer_2_1_" display="none" opacity="0.6">
	<g id="Layer_4_1_" display="inline">
		<g>
			<path fill="none" stroke="#6600CC" stroke-width="3" stroke-miterlimit="10" d="M319.315,98.553
				c1.147,0.348,2.316,0.641,3.429,1.073c0.438,0.171,0.756,0.656,1.129,0.997c-3.95,1.933,2.082,5.005-0.993,7.701
				c-1.51,1.323,0.688,3.464,3.105,3.68c1.396,0.125,3.247-1.083,4.112,0.453c1.868,3.319,5.971,5.037,6.561,9.196
				c0.997,7.034,4.141,12.295,11.274,14.706c1.83,0.617,3.634,1.505,3.559,4.488c-0.059,2.237,2.719,3.211,4.798,4.047
				c3.053,1.229,3.43,2.719,1.237,5.137c-0.647,0.713-0.698,1.567-0.229,2.19c1.324,1.761,4.456,3.628-0.678,4.469
				c-0.166,0.029,1.182,2.397-1.146,3.014c-1.066,0.282-1.793,1.823-2.256,3.523c2.565-0.232,5.139-0.388,5.101,3.564
				c2.051-1.922,3.553-3.11,5.249-0.561c0.698,1.048,0.555,1.655-0.191,2.387c-5.986,5.86-7.79,10.714-8.253,17.984
				c-0.067,1.041,0.229,2.428-1.174,2.575c-1.291,0.138-2.575-1.046-2.56-2.1c0.071-4.789-1.971-8.985-3.3-13.383
				c-0.074-0.244-0.024-0.531-0.015-0.797c0.418-9.165-1.632-12.493-10.165-17.324c-2.126-1.206-4.763-2.672-1.17-5.598
				c1.973-1.608,0.433-2.693-1.37-3.253c-3.013-0.936-5.229-3.062-7.385-5.194c-0.821-0.811-2.356-1.786-0.656-3.249
				c0.909-0.782,0.209-1.2-0.446-1.319c-2.813-0.52-3.266-2.871-4.58-4.859c-1.126-1.708-4.091-2.597-6.395-3.02
				c-2.266-0.415-4.715,0.495-7.087-0.246c-4.868-1.52-8.878,1.492-13.23,2.644c-0.986,0.261-1.752,0.136-2.674-0.063
				c-2.136-0.462-4.588-0.397-6.199,0.79c-3.723,2.744-7.606,1.294-11.516,1.443c-9.805,0.376-19.473,1.72-28.136,6.909
				c-0.449,0.269-0.968,1.051-1.196,0.957c-5.086-2.065-7.301,3.475-11.43,4.308c-4.042,0.815-7.479,3.79-11.562,5.014
				c-0.806,0.24-1.958,1.086-2.025,1.745c-0.426,4.291-2.784,8.181-2.479,12.612c0.242,3.532,0.66,7.034-0.033,10.613
				c-0.525,2.71-1.026,5.797,2.816,7.351c0.181-0.806,0.291-1.438,0.469-2.049c0.249-0.853,0.269-2.213,1.518-1.926
				c1.813,0.418,0.233,1.333,0.082,2.056c-0.258,1.215,0.622,1.953,1.259,2.786l0.045-0.064c-1.823,1.409-2.728,4.752-6.035,2.76
				c-0.853,1.131,0.403,1.77,0.361,2.668c-0.137,2.859-2.566,3.951-6.047,1.814c-1.532-0.94-2.384-0.619-3.461-0.178
				c-3.546,1.449-6.386,7.24-5.406,10.759c0.104,0.377,0.154,0.769,0.229,1.153c-4.863,0.167-1.656,6.902-6.252,7.603
				c-1.561,0.24-1.575,1.212-0.685,3.49c2.416,6.187,9.301,4.457,12.515,8.543c0.205,0.261,0.812,0.463,1.105,0.354
				c4.101-1.535,6.973,1.43,10.266,2.784c1.56,0.639,5.02-1.727,3.913,2.66c1.612,0.033,1.652-2.239,1.875-1.671
				c1.262,3.205,4.923,1.674,6.699,3.779c1.037,1.227,2.377,2.752,4.423,1.306c0.681-0.48,1.279-0.23,1.542,0.574
				c1.803,5.543,2.883,1.025,4.172-0.307c0.262-0.267,0.44-0.614,0.819-1.155c1.509,1.884,2.792,3.706,3.593,5.826
				c0.48,1.273,0.967,2.722,2.215,3.197c3.09,1.178,3.916,3.186,2.506,6.465c3.825-1.27,5.129,0.045,4.385,3.503
				c-0.463,2.143,0.062,3.891,2.412,4.192c2.66,0.34,5.55,1.367,7.762-1.361c0.728-0.9-0.639-3.631,2.352-2.717
				c0.273,0.083,0.011-1.203-0.411-1.643c-1.081-1.131-2.255-2.171-3.342-3.197c2.83-3.774,7.835-3.143,10.977-6.196
				c1.076-1.05,3.61-1.093,5.373-0.842c3.944,0.561,7.622-1.205,11.246-1.226c7.053-0.038,14.286-1.614,21.246,0.892
				c2.146,0.771,1.303,4.025,3.699,4.665l-0.044-0.08c0.054,0.661,0.356,1.432,0.124,1.969c-1.634,3.719,0.634,5.021,3.5,4.613
				c6.01-0.853,10.881,3.03,16.583,3.368c2.872,0.17,5.812,0.635,8.671,0.85c4.457,0.332,7.942,1.711,10.466,5.395
				c-0.435,0.475-0.587,1.121-0.99,1.615c0.396-0.514,0.597-1.135,0.914-1.695c1.272,1.002,1.558,2.436,1.663,3.92
				c0.6,8.357-0.81,16.236-5.537,23.326c-0.297-0.037-0.69,0.016-0.757-0.109c-2.401-4.385-2.368-4.314-5.449-0.465
				c-2.32,2.896-3.468,6.686-6.671,8.887c-5.771,3.965-12.43,5.4-19.191,6.072c-7.652,0.764-15.45,0.734-22.957-0.668
				c-5.545-1.033-11.176-2.061-16.624-3.633c-2.763-0.801-4.481-3.254-5.907-5.699c-3.039-5.203-5.124-10.801-6.718-16.604
				c-1.055-3.83-3.855-5.852-7.526-6.988c-3.347-1.035-6.048,0.873-7.142,3.096c-2.734,5.553-6.793,10.898-5.186,17.82
				c0.266,1.152,2.193,2.836-0.829,3.77c-0.604,0.188,1.196,3.141,1.919,4.443c2.774,4.98,0.004,8.703-1.975,12.613
				c-0.519,1.025-0.875,1.484-0.359,2.67c0.637,1.459,3.226,1.865,2.184,4.312c-0.238,0.564,0.994,0.207,1.6,0.143
				c2.913-0.309,5.923,0.34,7.763,2.346c3.535,3.855,7.783,4.494,12.515,4.199c2.093-0.129,3.98,0.141,5.269,2.082
				c1.302,1.959-0.734,2.744-1.271,4.092c-0.993,2.49-1.636,5.863-4.19,6.451c-5.938,1.369-7.331,6.318-9.71,10.574
				c-1.208,2.162-2.699,3.232-5.193,2.293c-1.137-0.428-2.33-0.736-3.518-0.355c-1.368,0.436-3.478,0.973-2.907,2.604
				c0.71,2.043,2.085,0.213,3.16-0.285c0.435-0.203,0.956-0.223,1.438-0.326c0.307,3.928,3.55,2.033,5.188,2.176
				c6.742,0.596,13.006,3.465,19.851,3.639c4.812,0.119,9.085,0.791,13.266-3.188c2.931-2.787,8.002-3.23,12.066-3.059
				c2.644,0.111,2.301,3.748,1.678,6.312c-1.29,5.297-2.906,10.441-6.407,14.934c-3.366-3.109-7.055-6.371-12.33-6.643
				c-0.654-0.033-1.524-0.463-1.924-0.182c-4.452,3.131-9.58,1.363-14.35,2.1c-0.786,0.119-1.685,0.07-2.336,0.443
				c-1.759,1.004-4.712,1.594-4.177,4.051c0.478,2.18,3.255,1.25,4.959,1.166c2.367-0.117,4.436-0.775,2.693,2.906
				c-0.72,1.521,0.033,2.828,2.052,2.904c1.16,0.045,2.095,0.561,2.197,1.867c0.093,1.197-0.627,1.904-1.575,2.562
				c-3.501,2.43-7.227,4.402-9.063,8.846c-1.997,4.83-7.206,4.195-11.163,4.332c-5.52,0.191-8.502,4.873-13.288,6.191
				c-1.763,0.484-0.947,2.559-0.377,3.869c0.892,2.041,1.967,4.004,3.022,5.969c0.151,0.283,0.816,0.631,0.929,0.545
				c2.617-2.027,4.766,0.775,6.652,0.723c6.469-0.184,11.971,3.064,18.07,3.83c0.965,0.119,2.189,0.326,2.646-0.396
				c1.933-3.074,5.007-2.861,7.987-3.293c2.062-0.297,3.71-1.758,4.46-3.658c1.839-4.666,3.805-9.123,7.676-12.615
				c1.848-1.668,1.248-3.084-0.867-4.221c-0.467-0.252-0.867-1.074-0.883-1.648c-0.076-2.84,2.332-4.727,3.003-7.371
				c0.263-1.031,4.003,0.867,3.947,2.613c-0.061,1.961-0.6,3.674,2.246,4.047c2.594,0.336,4.762,0.26,5.432-2.814
				c1.39,0.576,1.089,2.551,3.387,2.279c-0.037-0.455,4.986-14.645,5.604-14.939l0.221-0.215c0.462-0.441,0,0,0,0
				c-0.84,0.596,0.095,6.742,4.796,4.527c2.428-1.143,0.647-3.275,1.25-4.895c0.082-0.215-0.027-0.523-0.099-0.773
				c-0.409-1.414-3.126,1.85-2.523-1.154c0.228-1.145,1.776-1.965,2.288-3.125c0.457-1.033,0.329-2.33,0.423-3.514
				c0.075-0.932-0.025-2.164,1.156-2.229c1.518-0.086,1.25,1.453,1.515,2.379c0.369,1.287-0.503,2.273-1.046,3.33
				c-0.369,0.713-0.776,1.549-0.13,2.225c0.75,0.785,1.46,0.059,2.091-0.369c3.292-2.24,5.742-1.188,7.683,1.926
				c0.498,0.799,1.004,1.771,2.129,1.361c1.257-0.463,1.213-1.676,1.002-2.736c-0.476-2.416-2.095-4.285-3.272-6.357
				c-0.744-1.307-1.616-2.627-1.047-4.107c1.562-4.072,3.21-8.119,4.983-12.104c0.936-2.105,3.104-2.203,4.851-1.697
				c2.166,0.625,3.615,2.518,3.677,4.773c0.105,3.768,2.426,6.893,2.603,10.67c0.12,2.598,2.769,3.281,5.185,4.309
				c0.113-3.186,0.304-6.273-0.878-9.031c-1.226-2.861,0.418-4.299,2.097-5.773c1.862-1.635,4.085-2.035,6.267-0.629
				c1.218,0.785,2.539,1.699,3.27,2.889c1.682,2.742,4.271,3.795,7.097,3.674c3.74-0.16,5.668,2.092,7.631,4.557
				c3.466,4.346,6.438,8.602,7.236,14.643c0.819,6.209,6.722,8.402,12.331,9.865c1.797,0.467,3.696,0.656,5.394,1.354
				c2.606,1.07,2.811,3.328,2.912,5.953c0.1,2.686-1.401,3.273-3.229,3.508c-2.883,0.373-2.835,3.48-4.746,4.787
				c-0.399,0.271,0.391,2.455,1.668,2.734c2.279,0.506,4.104,1.887,6.191,2.744c1.627,0.668,2.815,0.861,3.958-1.113
				c0.938-1.619,4.753-0.02,5.385-2.639l-0.687-0.439c0.884,0.793,1.793,0.715,2.37-0.256c3.214-5.391,8.959-3.656,13.551-4.346
				c3.717-0.559,4.681,3.395,2.367,7.217c-9.808,16.205-23.403,28.848-37.996,40.525c-28.662,22.936-61.069,37.885-97.073,44.984
				c-5.192,1.025-10.406,2.139-16.147,2.039c3.004-6.428,2.725-13.861,7.02-19.914c1.284-1.809,0.778-4.648,2.444-6.598
				c0.49-0.574,0.479-1.674-0.316-2.141c-1.152-0.676-2.17,0.092-2.734,0.957c-2.27,3.488-5.748,5.938-8.052,9.332
				c-4.522,6.668-10.72,11.82-15.816,17.957c-2.013,2.422-4.838,2.652-7.667,2.588c-46.406-1.023-89.067-13.805-127.232-40.633
				c-25.728-18.084-46.969-40.428-63.552-67.17c-0.489-0.789-0.939-1.607-1.361-2.434c-0.172-0.338-0.217-0.742-0.312-1.082
				c1.293-0.25,2.524-0.627,3.765-0.67c0.699-0.023,1.632,0.873,1.939-0.318c0.289-1.131-0.762-1.932-1.646-1.791
				c-7.112,1.15-9.005-4.391-11.402-8.979c-13.091-25.064-21.881-51.523-26.062-79.551c-1.811-12.145-2.963-24.357-2.86-36.551
				c0.138-16.054,1.639-32.068,4.806-47.889c7.453-37.243,22.531-71.06,45.515-101.271c17.352-22.808,38.253-41.778,62.736-56.767
				c14.693-8.995,30.152-16.315,46.498-21.769c2.402-0.802,4.797-1.434,7.8-0.964c-1.328,1.753-2.524,3.541,0.251,4.742
				c-0.729,1.557,2.613,4.155-1.235,4.891c-0.644,0.123-1.148,0.417-0.834,0.974c1.588,2.837-0.575,5.109-1.036,7.63
				c-0.228,1.246-0.162,2.41,1.022,3.206c1.247,0.841,1.857,0.295,2.358-0.943c0.283-0.702,1.434-0.892,1.662-0.365
				c1.187,2.734,4.923,1.648,6.25,4.708c1.005,2.314,3.675,1.563,5.402-0.167c1.65-1.652,3.175-2.558,5.599-1.191
				c2.198,1.24,3.779-0.305,4.135-2.297c1.144-6.401,5.066-7.814,10.917-7.079c3.407,0.43,6.784-0.634,10.022-1.967
				c2.499-1.029,5.017-0.685,7.107,1.133c0.65,0.565,1.456,1.681,1.29,2.304c-0.327,1.214-1.725,1.001-2.744,0.883
				c-1.026-0.119-2.139,0.236-3.233-0.553c1.654,3.197,1.954,6.713,4.479,9.556c1.359,1.529,2.346,2.449,4.106,1.93
				c1.905-0.562,3.802-1.435,3.655-4.041c-0.027-0.479,0.259-0.976,0.412-1.504c5.628,3.197,10.111,8.306,16.715,9.087
				c4.716,0.559,9.055,2.465,13.702,3.082c1.604,0.212,2.758,0.85,3.635,2.121c0.836,1.207,1.605,2.475,3.113,2.978l-0.016-0.063
				c-2.5,6.017,0.825,10.556,3.879,15.137c2.778,4.173,7.08,7.986,8.055,12.526c0.991,4.633,3.001,3.562,5.612,3.353
				c0.828-0.066,1.566-0.132,2.085,0.71c0.524,0.859,1.462,1.644,2.243,0.821c1.015-1.07-0.241-1.902-0.973-2.568
				c-0.575-0.522-1.361-0.808-2.039-1.221c-0.646-0.39-1.682-0.745-0.799-1.699c0.611-0.662,2.258-1.251,2.387-0.548
				c0.639,3.527,4.955,3.031,6.036,5.89l-0.277,0.266L319.315,98.553z"/>
			<path fill="none" stroke="#6600CC" stroke-width="3" stroke-miterlimit="10" d="M434.831,357.342
				c4.525-1.279,7.521,1.547,10.624,4.008c1.274,1.016,1.153,2.172-0.362,2.707c-0.737,0.262-2.871-2.107-1.856,1.012
				c0.488,1.504,1.95,2.156,3.544,1.055c0.399-0.273,0.485-0.98,1.475-0.805c0.194,3.34,2.394,5.197,5.418,6.314l-0.082,0.045
				c2.452,1.354,1.998,1.117,1.087,2.873c-2.435,4.689-4.464,1.842-6.613-0.049c-6.462-5.682-14.762-6.223-22.566-8.27
				c-14.662-3.842-29.7-5.877-44.407-9.479c-1.23-0.305-2.133-1-3.087-1.73c-9.892-7.596-21.139-12.229-33.274-14.604
				c-3.202-0.627-3.984-1.906-3.496-4.752c0.784-4.58,1.038-9.283,3.231-13.523c0.486-0.941,0.83-2.197,1.627-2.701
				c8.104-5.141,10.006-14.084,13.502-21.992c1.972-4.453,3.598-9.092,4.547-13.914c0.144-0.734-0.013-1.406,1.358-1.242
				c4.578,0.541,7.473-1.904,7.665-6.211c0.076-1.705,0.567-3.553,1.936-4.189c3.354-1.561,2.46-3.984,1.368-6.086
				c-0.988-1.914-1.024-3.232,0.69-4.463c0.969-0.693,1.315-1.568,1.335-2.725c0.024-1.436,1.019-2.432,2.28-2.285
				c4.274,0.496,9.172-1.211,12.646,2.307c3.293,3.334,8.024,5.344,9.418,10.59c0.69,2.609,3.175,1.35,4.746,0.596
				c3.272-1.566,5-1.33,7.789,0.383c2.506,1.541,4.157,3.896,6.391,5.676c1.72,1.371,4.76,3.717-1.162,3.846
				c2.841,2.475,5.124,4.506,6.997,7.098c1.022,1.414,3.73,1.686,4.243,3.732c0.805,3.209,1.182,6.523,1.73,9.795
				c1.435,8.547-0.087,17.381,2.475,25.82c0.2,0.652,0.366,1.24-0.215,1.824c-2.672,2.676-9.56,4.012-13.209,2.346
				c-1.516-0.691-3.036-0.82-5.225-1.027c1.065,5.24,4.277,8.799,7.912,11.836c1.438,1.199,2.861,2.113,2.621,4.002
				c-0.351,2.752,1.139,4.561,3.079,5.709c2.634,1.555,3.589,3.754,3.854,6.529c-0.237-0.094-0.48-0.113-0.729-0.057
				C434.34,357.266,434.572,357.268,434.831,357.342z"/>
			<path fill="none" stroke="#6600CC" stroke-width="3" stroke-miterlimit="10" d="M303.146,330.287
				c3.426-2.215,5.16,0.881,6.892,2.568c3.061,2.98,5.421,3.213,8.063-0.041c0.969-1.191,1.52-2.812,3.605-3.51
				c-1.012,4.025,0.85,5.613,4.47,5.729c2.283,0.072,3.009,0.928,1.34,2.922c-1.185,1.42-2.137,3.055-4.375,2.943
				c-3.236-0.162-5.836,1.465-8.504,3.023c-1.314,0.77-3.881,2.719-2.525-1.551c0.516-1.625-0.785-1.717-1.95-1.379
				c-3.293,0.961-6.372-0.416-7.179-3.895c-0.689-2.965-4.298-4.041-4.176-7.309c-4.811-0.127-6.156-4.977-9.557-7.01
				c-2.486-1.486-1.544-3.648-1.244-5.705c0.12-0.838,0.354-1.771,1.398-1.518c1.887,0.453,4.518-0.613,5.267,2.408
				c0.201,0.814,0.801,1.363,1.621,1.631C301.384,321.266,302.958,325.225,303.146,330.287z"/>
			<path fill="none" stroke="#6600CC" stroke-width="3" stroke-miterlimit="10" d="M360.963,221.486
				c-2.38-0.268-1.655-2.847-3.244-3.429c-0.553,5.375-0.161,5.901,4.659,6.249c0.058,0.243,0.248,0.616,0.153,0.715
				c-3.594,3.752-3.64,3.793,0.354,7.542c1.807,1.697,2.777,3.332,0.531,5.299c-2.479,2.171-4.202,4.71-4.831,8.025
				c-0.213,1.119-1.044,2.14-1.671,3.156c-0.582,0.94-1.394,1.736-2.595,1.5c-1.509-0.298-1.287-1.616-1.052-2.58
				c1.396-5.725,0.701-11.753,0.044-17.196c-0.616-5.086,1.869-9.862,0.105-14.749c-0.444-1.238-0.203-2.792,1.496-3.223
				c1.869-0.475,3.472,0.092,4.382,1.867C360.372,216.762,360.659,219.06,360.963,221.486z"/>
			<path fill="none" stroke="#6600CC" stroke-width="3" stroke-miterlimit="10" d="M287.357,303.268
				c0.684-2.553,2.115-3.242,4.773-2.564c4.225,1.076,8.578,1.635,12.838,2.58c1.339,0.297,2.557,1.133,3.807,2.184
				c-3.59,0.412-6.587,3.516-10.617,1.465c-1.773-0.902-3.699,0.252-5.136,1.404c-1.748,1.404-2.579,0.955-2.978-0.998
				c-0.367-1.777-1.052-3.283-2.761-4.135L287.357,303.268z"/>
			<path fill="none" stroke="#6600CC" stroke-width="3" stroke-miterlimit="10" d="M399.025,375.637
				c2.06-0.35,4.324-0.539,6.458-1.166c1.589-0.469,3.126-0.102,3.188,1.191c0.086,1.795,1.45,4-0.622,5.545
				c-2.808,2.094-9.648,0.031-10.927-3.232C396.453,376.266,395.851,374.605,399.025,375.637z"/>
			<path fill="none" stroke="#6600CC" stroke-width="3" stroke-miterlimit="10" d="M316.185,373.129l0.133-0.18
				c-1.164,0.17-2.81,0.584-2.703-1.16c0.122-1.936-1.757-2.172-2.201-3.469c1.595-2.422,7.743-0.326,6.047-6.033
				c3.044,0.424,4.111,2.602,1.833,4.73C317.38,368.803,316.721,370.842,316.185,373.129z"/>
			<path fill="none" stroke="#6600CC" stroke-width="3" stroke-miterlimit="10" d="M310.579,373.113
				c0.224,1.779-0.603,2.369-2.023,2.352c-1.136-0.014-2.551,0.289-2.576-1.504c-0.021-1.549,0.521-2.953,2.264-3.146
				C309.945,370.627,310.36,371.984,310.579,373.113z"/>
			<path fill="none" stroke="#6600CC" stroke-width="3" stroke-miterlimit="10" d="M453.591,371.678l0.079-0.049
				c0.104-0.764,0.101-1.57,0.345-2.289c0.324-0.951,1.077-1.469,2.138-1.26c0.665,0.135,1.303,0.461,1.399,1.186
				c0.169,1.252-0.874,1.418-1.726,1.705C455.086,371.219,454.337,371.443,453.591,371.678z"/>
			<path fill="none" stroke="#6600CC" stroke-width="3" stroke-miterlimit="10" d="M292.925,66.277
				c0.641,0.127,1.304,0.188,1.918,0.393c1.217,0.406,2.091,1.134,1.853,2.59c-0.107,0.649-0.313,1.484-1.07,1.439
				c-1.335-0.077-1.343-1.411-1.771-2.311c-0.336-0.708-0.626-1.438-0.94-2.166L292.925,66.277z"/>
			<path fill="none" stroke="#6600CC" stroke-width="3" stroke-miterlimit="10" d="M287.284,303.205
				c1.879,2.951,0.308,4.129-2.803,4.795c0.135-2.213,1.764-3.334,2.881-4.73L287.284,303.205z"/>
			<path fill="none" stroke="#6600CC" stroke-width="3" stroke-miterlimit="10" d="M318.576,242.454
				c2.587-1.343,3.187,1.609,4.83,2.296c-2.09,0.2-3.431-1.188-4.871-2.371L318.576,242.454z"/>
			<path fill="none" stroke="#6600CC" stroke-width="3" stroke-miterlimit="10" d="M415.587,402.648"/>
			<path fill="none" stroke="#6600CC" stroke-width="3" stroke-miterlimit="10" d="M276.217,266.984
				c1.035,1.654,2.359,3.197,3.05,4.986c2.021,5.219,6.166,6.41,11.114,6.381c0.638-0.002,1.541-0.096,1.879,0.266
				c3.366,3.621,7.486,2.578,11.552,2.031c2.543-0.344,5.06-0.031,7.533,0.52c2.193,0.49,4.428,0.027,5.21-1.85
				c0.918-2.207-1.59-2.502-3.047-3.307c-2.409-1.332-3.283-4.314-6.018-5.52c-1.043-0.461,0.165-1.865,1.083-1.707
				c2.243,0.389,2.497-0.49,2.872-2.518c0.411-2.207,5.619-2.969,7.905-0.891c2.81,2.553,5.381,1.055,7.708-0.002
				c2.22-1.01,2.604-3.352,2.032-5.895c-0.533-2.377,0.73-4.188,3.046-4.957c4.966-1.645,12.746,1.857,15.005,6.562
				c1.094,2.275,0.829,4.77,0.792,7.033c-0.136,8.367-1.829,16.359-7.725,22.859c-1.37,1.512-2.915,2.986-4.876,3.336
				c-6.238,1.104-12.275,2.906-18.842,2.703c-8.571-0.262-16.887-2.031-25.325-2.777c-7.516-0.664-15.233-9.225-15.649-16.787
				c-0.189-3.412-0.034-6.84-0.034-10.26C275.729,267.123,275.974,267.057,276.217,266.984z"/>
			<path fill="none" stroke="#6600CC" stroke-width="3" stroke-miterlimit="10" d="M345.92,432.123
				c-0.396,4.873-2.337,9.67,0.282,14.473c0.412,0.756,0.082,2.176-0.348,3.08c-1.356,2.846-3.119,5.459-3.621,8.721
				c-0.16,1.055-1.06,2.615-2.69,2.566c-1.781-0.057-2.362-1.486-2.818-2.936c-0.037-0.127-0.075-0.256-0.106-0.385
				c-0.594-2.436-0.743-5.424-3.993-5.713c-3.235-0.285-3.75,2.785-4.656,4.709c-6.418-3.77-6.088-11.689-10.643-16.688
				c-1.575-1.725-0.466-4.111,0.678-5.967c1.747-2.838,1.865-5.559,0.553-8.699c-2.137-5.107-2.226-10.297,0.781-15.23
				c1.162-1.904,2.707-2.758,4.535-0.977c2.834,2.758,6.12,5.227,6.708,9.607c0.2,1.484,0.775,3.031,2.625,3
				c1.851-0.031,1.688-1.867,2.034-3.023c0.657-2.186,0.862-4.67,4.022-4.477c2.843,0.176,4.067,1.922,4.633,4.619
				c0.456,2.184,1.538,4.211,1.629,6.531c0.04,0.988,0.021,2.434,1.104,2.816c1.224,0.434,1.663-1.043,2.389-1.738
				c0.646-0.615,1.174-1.357,1.927-2.254c1.61,3.477,1.704,6.686-0.559,9.293C348.521,435.594,348.018,431.537,345.92,432.123z"/>
			<path fill="none" stroke="#6600CC" stroke-width="3" stroke-miterlimit="10" d="M295.615,429.148
				c-3.455-1.186-3.176-5.35-6.578-6.238c-0.074-0.02-0.047-0.998,0.154-1.422c1.922-4.033,3.274-8.379,6.977-11.391
				c1.164-0.945,1.797-2.586,2.572-3.965c1.249-2.219,2.631-4.305,4.908-5.596c0.825-0.471,1.76-0.801,2.632-0.162
				c0.927,0.682,0.678,1.637,0.362,2.545c-1.115,3.201-2.076,6.459-3.229,9.641c-1.091,3.016-1.506,6.314-3.568,8.926
				c-0.874,1.105-1.405,3.428-3.891,1.385c-1.196-0.986-2.154,0.262-1.701,1.844C294.681,426.201,295.161,427.672,295.615,429.148z"
				/>
			<path fill="none" stroke="#6600CC" stroke-width="3" stroke-miterlimit="10" d="M357.801,258.488
				c-0.167,1.973-0.173,4.023-2.572,4.816c-1.221,0.402-2.334,0.232-3.314-0.594c-0.646-0.547-0.95-1.268-0.706-2.107
				c0.397-1.371,1.537-1.68,2.764-1.783c1.299-0.105,2.604-0.168,3.905-0.25L357.801,258.488z"/>
			<path fill="none" stroke="#6600CC" stroke-width="3" stroke-miterlimit="10" d="M310.706,274.775
				c-2.636,0.924-3.891,0.07-5.957-0.477C307.137,272.738,308.508,273.203,310.706,274.775z"/>
			<path fill="none" stroke="#6600CC" stroke-width="3" stroke-miterlimit="10" d="M288.803,79.356l0.117-0.123"/>
			<path fill="none" stroke="#6600CC" stroke-width="3" stroke-miterlimit="10" d="M319.315,98.553
				c0.176,0.732,0.729,1.504-0.061,2.153c-0.147,0.122-0.858-0.092-0.94-0.299c-0.398-1,0.465-1.339,1.084-1.788L319.315,98.553z"/>
			<path fill="none" stroke="#6600CC" stroke-width="3" stroke-miterlimit="10" d="M415.284,327.572
				c-0.28-0.572-0.546-0.865-0.542-1.15c0.01-0.713,0.4-1.232,1.142-1.326c0.446-0.055,0.796,0.26,0.605,0.686
				C416.239,326.336,415.809,326.812,415.284,327.572z"/>
			<path fill="none" stroke="#6600CC" stroke-width="3" stroke-miterlimit="10" d="M434.831,357.342
				c-1.475-0.104-2.918-0.24-2.945-2.357c1.553,0.207,2.012,1.617,2.974,2.402L434.831,357.342z"/>
		</g>
	</g>
	<g id="Layer_2_2_" display="inline">
	</g>
	<g id="Layer_3_1_" display="inline">
	</g>
</g>
</svg>
