<?xml version="1.0" encoding="utf-8"?>
<!-- Generator: Adobe Illustrator 16.0.4, SVG Export Plug-In . SVG Version: 6.00 Build 0)  -->
<!DOCTYPE svg PUBLIC "-//W3C//DTD SVG 1.1//EN" "http://www.w3.org/Graphics/SVG/1.1/DTD/svg11.dtd">
<svg version="1.1" id="Layer_1" xmlns="http://www.w3.org/2000/svg" xmlns:xlink="http://www.w3.org/1999/xlink" x="0px" y="0px"
	 width="400px" height="400px" viewBox="0 0 500 500" enable-background="new 0 0 500 500" xml:space="preserve">
<g id="Layer_4">
	<g>
		<path fill="none" stroke="#6600CC" stroke-miterlimit="10" d="M367.137,238.977c0.742,0.225,1.498,0.414,2.218,0.694
			c0.284,0.11,0.489,0.424,0.73,0.645c-2.556,1.25,1.347,3.238-0.643,4.981c-0.977,0.856,0.445,2.241,2.009,2.38
			c0.903,0.081,2.101-0.701,2.66,0.293c1.209,2.147,3.862,3.258,4.244,5.949c0.645,4.55,2.678,7.953,7.293,9.513
			c1.184,0.399,2.351,0.974,2.302,2.903c-0.038,1.447,1.759,2.077,3.104,2.618c1.976,0.795,2.219,1.759,0.801,3.323
			c-0.419,0.461-0.452,1.014-0.148,1.417c0.856,1.139,2.882,2.347-0.438,2.891c-0.107,0.019,0.765,1.551-0.742,1.949
			c-0.689,0.183-1.159,1.18-1.459,2.279c1.66-0.15,3.324-0.251,3.3,2.306c1.326-1.243,2.298-2.012,3.396-0.362
			c0.451,0.678,0.358,1.07-0.124,1.544c-3.872,3.791-5.039,6.931-5.339,11.634c-0.043,0.673,0.148,1.57-0.759,1.666
			c-0.836,0.089-1.666-0.677-1.656-1.358c0.046-3.098-1.274-5.812-2.135-8.657c-0.048-0.158-0.016-0.344-0.009-0.516
			c0.271-5.929-1.056-8.081-6.575-11.206c-1.376-0.78-3.081-1.729-0.758-3.621c1.276-1.04,0.28-1.742-0.886-2.104
			c-1.949-0.605-3.382-1.981-4.777-3.36c-0.531-0.524-1.524-1.155-0.425-2.102c0.589-0.506,0.136-0.776-0.288-0.854
			c-1.82-0.336-2.112-1.857-2.963-3.144c-0.729-1.104-2.646-1.68-4.137-1.953c-1.466-0.269-3.05,0.32-4.584-0.159
			c-3.149-0.983-5.743,0.965-8.559,1.71c-0.638,0.169-1.133,0.088-1.729-0.041c-1.382-0.299-2.968-0.257-4.01,0.511
			c-2.409,1.775-4.921,0.837-7.45,0.934c-6.342,0.243-12.596,1.112-18.2,4.469c-0.29,0.174-0.626,0.68-0.773,0.619
			c-3.29-1.336-4.723,2.248-7.394,2.787c-2.614,0.527-4.838,2.451-7.479,3.243c-0.521,0.155-1.267,0.702-1.31,1.129
			c-0.275,2.775-1.801,5.292-1.604,8.158c0.156,2.284,0.427,4.55-0.021,6.865c-0.34,1.753-0.664,3.75,1.821,4.755
			c0.117-0.521,0.188-0.93,0.304-1.325c0.161-0.552,0.174-1.432,0.981-1.246c1.173,0.271,0.151,0.862,0.053,1.33
			c-0.167,0.786,0.402,1.264,0.814,1.802l0.029-0.041c-1.179,0.911-1.765,3.074-3.903,1.785c-0.552,0.731,0.261,1.145,0.233,1.726
			c-0.089,1.85-1.66,2.556-3.912,1.174c-0.991-0.608-1.542-0.4-2.239-0.115c-2.294,0.938-4.131,4.684-3.497,6.96
			c0.067,0.244,0.1,0.497,0.148,0.746c-3.146,0.108-1.071,4.465-4.044,4.918c-1.01,0.155-1.019,0.784-0.443,2.258
			c1.562,4.002,6.017,2.883,8.096,5.526c0.133,0.169,0.525,0.3,0.715,0.229c2.652-0.993,4.511,0.925,6.641,1.801
			c1.009,0.413,3.247-1.117,2.531,1.721c1.043,0.021,1.068-1.448,1.213-1.081c0.816,2.073,3.185,1.083,4.333,2.444
			c0.671,0.794,1.538,1.78,2.861,0.845c0.44-0.311,0.827-0.149,0.997,0.371c1.167,3.586,1.865,0.663,2.699-0.198
			c0.169-0.173,0.285-0.397,0.53-0.747c0.976,1.219,1.806,2.397,2.324,3.769c0.311,0.823,0.625,1.761,1.433,2.068
			c1.998,0.762,2.533,2.061,1.621,4.182c2.475-0.821,3.317,0.029,2.836,2.267c-0.299,1.386,0.04,2.517,1.561,2.712
			c1.721,0.22,3.59,0.884,5.021-0.882c0.471-0.582-0.413-2.348,1.521-1.757c0.177,0.054,0.007-0.778-0.266-1.062
			c-0.699-0.731-1.459-1.404-2.162-2.068c1.831-2.441,5.068-2.033,7.101-4.008c0.696-0.679,2.335-0.707,3.476-0.545
			c2.552,0.363,4.931-0.779,7.274-0.793c4.562-0.024,9.242-1.044,13.744,0.577c1.388,0.499,0.843,2.604,2.393,3.018l-0.028-0.052
			c0.035,0.428,0.23,0.927,0.08,1.273c-1.057,2.406,0.41,3.248,2.265,2.984c3.888-0.552,7.038,1.96,10.727,2.178
			c1.858,0.11,3.76,0.411,5.609,0.55c2.883,0.216,5.138,1.106,6.771,3.489c-0.281,0.308-0.38,0.727-0.641,1.046
			c0.256-0.333,0.386-0.735,0.591-1.097c0.823,0.647,1.008,1.574,1.076,2.535c0.388,5.406-0.524,10.503-3.582,15.09
			c-0.192-0.024-0.446,0.009-0.49-0.072c-1.553-2.835-1.531-2.79-3.524-0.3c-1.501,1.873-2.243,4.324-4.315,5.748
			c-3.732,2.565-8.04,3.494-12.414,3.929c-4.95,0.493-9.995,0.475-14.851-0.432c-3.587-0.669-7.229-1.334-10.754-2.351
			c-1.787-0.518-2.898-2.104-3.821-3.687c-1.966-3.366-3.314-6.986-4.346-10.74c-0.682-2.478-2.493-3.786-4.868-4.521
			c-2.165-0.669-3.912,0.565-4.62,2.004c-1.769,3.592-4.394,7.05-3.354,11.527c0.172,0.745,1.419,1.834-0.536,2.438
			c-0.391,0.121,0.774,2.032,1.242,2.874c1.794,3.222,0.002,5.631-1.277,8.159c-0.336,0.663-0.566,0.96-0.232,1.728
			c0.411,0.944,2.086,1.207,1.412,2.79c-0.154,0.364,0.643,0.134,1.034,0.093c1.885-0.2,3.832,0.22,5.021,1.517
			c2.287,2.494,5.035,2.907,8.096,2.717c1.354-0.084,2.575,0.091,3.408,1.346c0.842,1.268-0.475,1.775-0.822,2.647
			c-0.643,1.611-1.059,3.793-2.711,4.174c-3.841,0.886-4.742,4.087-6.281,6.839c-0.781,1.398-1.746,2.092-3.359,1.483
			c-0.735-0.275-1.507-0.476-2.275-0.229c-0.885,0.282-2.249,0.629-1.881,1.685c0.459,1.321,1.349,0.138,2.044-0.186
			c0.281-0.131,0.619-0.144,0.931-0.21c0.198,2.541,2.296,1.314,3.355,1.407c4.361,0.386,8.413,2.241,12.841,2.354
			c3.112,0.077,5.877,0.512,8.581-2.062c1.896-1.803,5.177-2.09,7.806-1.979c1.71,0.071,1.488,2.425,1.085,4.083
			c-0.834,3.427-1.88,6.754-4.145,9.661c-2.178-2.012-4.563-4.122-7.976-4.298c-0.424-0.021-0.986-0.299-1.245-0.117
			c-2.88,2.025-6.197,0.882-9.282,1.357c-0.509,0.078-1.09,0.046-1.511,0.287c-1.138,0.649-3.049,1.031-2.702,2.621
			c0.309,1.41,2.105,0.809,3.208,0.754c1.531-0.076,2.869-0.502,1.742,1.88c-0.466,0.984,0.021,1.829,1.327,1.879
			c0.751,0.029,1.355,0.362,1.421,1.208c0.061,0.774-0.405,1.231-1.019,1.657c-2.265,1.572-4.675,2.848-5.862,5.723
			c-1.292,3.124-4.662,2.714-7.222,2.802c-3.57,0.124-5.5,3.152-8.596,4.005c-1.141,0.313-0.613,1.655-0.244,2.503
			c0.577,1.32,1.272,2.591,1.955,3.861c0.099,0.183,0.528,0.408,0.602,0.353c1.692-1.312,3.083,0.502,4.303,0.468
			c4.185-0.119,7.743,1.982,11.689,2.477c0.624,0.078,1.416,0.212,1.712-0.256c1.25-1.988,3.239-1.852,5.167-2.131
			c1.333-0.191,2.399-1.137,2.885-2.366c1.189-3.018,2.461-5.9,4.965-8.16c1.195-1.079,0.808-1.995-0.561-2.73
			c-0.302-0.162-0.562-0.694-0.571-1.065c-0.049-1.837,1.509-3.058,1.942-4.769c0.17-0.667,2.59,0.561,2.554,1.69
			c-0.039,1.269-0.388,2.377,1.453,2.617c1.678,0.218,3.08,0.169,3.514-1.82c0.898,0.373,0.704,1.649,2.19,1.475
			c-0.023-0.294,3.226-9.474,3.625-9.664l0.143-0.139c0.299-0.285,0,0,0,0c-0.543,0.385,0.062,4.361,3.103,2.929
			c1.57-0.739,0.419-2.118,0.809-3.166c0.053-0.14-0.018-0.339-0.063-0.501c-0.265-0.914-2.022,1.197-1.633-0.747
			c0.147-0.739,1.149-1.271,1.479-2.021c0.296-0.669,0.214-1.508,0.274-2.273c0.049-0.603-0.017-1.399,0.748-1.441
			c0.981-0.056,0.809,0.94,0.979,1.539c0.239,0.832-0.325,1.47-0.677,2.153c-0.238,0.462-0.502,1.003-0.084,1.439
			c0.485,0.508,0.944,0.038,1.353-0.239c2.13-1.449,3.715-0.768,4.97,1.246c0.322,0.518,0.649,1.146,1.377,0.881
			c0.813-0.3,0.785-1.084,0.648-1.77c-0.308-1.563-1.355-2.772-2.117-4.112c-0.481-0.846-1.045-1.699-0.677-2.658
			c1.011-2.634,2.076-5.251,3.224-7.829c0.605-1.361,2.008-1.425,3.138-1.098c1.401,0.404,2.339,1.628,2.378,3.088
			c0.068,2.438,1.569,4.458,1.684,6.902c0.078,1.68,1.791,2.123,3.354,2.787c0.074-2.061,0.197-4.059-0.567-5.843
			c-0.793-1.851,0.271-2.78,1.356-3.734c1.204-1.058,2.643-1.316,4.054-0.406c0.788,0.507,1.643,1.099,2.114,1.867
			c1.088,1.774,2.764,2.456,4.591,2.378c2.42-0.104,3.667,1.353,4.937,2.946c2.242,2.812,4.164,5.565,4.681,9.473
			c0.53,4.017,4.349,5.436,7.978,6.382c1.162,0.302,2.391,0.424,3.488,0.875c1.687,0.693,1.818,2.153,1.884,3.852
			c0.064,1.736-0.906,2.117-2.089,2.27c-1.865,0.24-1.834,2.251-3.07,3.096c-0.258,0.176,0.253,1.588,1.079,1.77
			c1.475,0.326,2.655,1.22,4.005,1.774c1.053,0.432,1.821,0.558,2.561-0.72c0.607-1.047,3.074-0.013,3.483-1.707l-0.444-0.285
			c0.572,0.514,1.16,0.463,1.533-0.164c2.079-3.488,5.795-2.366,8.766-2.812c2.404-0.361,3.028,2.195,1.531,4.668
			c-6.344,10.482-15.139,18.66-24.578,26.215c-18.541,14.837-39.505,24.507-62.795,29.1c-3.358,0.663-6.731,1.384-10.445,1.319
			c1.943-4.158,1.763-8.968,4.541-12.882c0.83-1.17,0.503-3.008,1.581-4.269c0.317-0.371,0.31-1.082-0.205-1.385
			c-0.745-0.438-1.403,0.06-1.769,0.619c-1.468,2.257-3.718,3.842-5.208,6.037c-2.926,4.313-6.935,7.646-10.231,11.615
			c-1.302,1.566-3.13,1.716-4.96,1.675c-30.019-0.662-57.615-8.931-82.303-26.284c-16.643-11.699-30.383-26.152-41.11-43.451
			c-0.316-0.511-0.607-1.039-0.88-1.574c-0.111-0.219-0.141-0.479-0.202-0.7c0.837-0.161,1.633-0.405,2.436-0.434
			c0.452-0.015,1.056,0.565,1.254-0.205c0.187-0.731-0.493-1.25-1.064-1.158c-4.601,0.744-5.825-2.841-7.375-5.809
			c-8.468-16.214-14.155-33.329-16.859-51.46c-1.171-7.855-1.917-15.755-1.85-23.644c0.089-10.385,1.06-20.744,3.108-30.978
			c4.821-24.092,14.575-45.967,29.443-65.51c11.224-14.754,24.745-27.026,40.583-36.721c9.505-5.819,19.505-10.554,30.078-14.082
			c1.554-0.519,3.104-0.927,5.046-0.624c-0.859,1.134-1.633,2.291,0.162,3.067c-0.472,1.007,1.69,2.688-0.799,3.164
			c-0.417,0.08-0.743,0.27-0.54,0.63c1.027,1.835-0.372,3.305-0.67,4.936c-0.147,0.806-0.104,1.559,0.661,2.074
			c0.807,0.544,1.201,0.19,1.525-0.61c0.184-0.454,0.928-0.577,1.075-0.236c0.768,1.769,3.185,1.066,4.043,3.045
			c0.65,1.497,2.377,1.011,3.494-0.108c1.067-1.068,2.054-1.654,3.622-0.771c1.422,0.802,2.444-0.197,2.675-1.486
			c0.74-4.141,3.277-5.055,7.062-4.579c2.204,0.278,4.389-0.411,6.483-1.272c1.617-0.666,3.245-0.443,4.598,0.733
			c0.421,0.366,0.942,1.087,0.834,1.49c-0.211,0.786-1.115,0.648-1.774,0.571c-0.664-0.077-1.384,0.153-2.092-0.358
			c1.07,2.068,1.265,4.343,2.897,6.182c0.879,0.989,1.517,1.584,2.656,1.249c1.232-0.363,2.459-0.928,2.364-2.614
			c-0.018-0.31,0.167-0.631,0.267-0.973c3.641,2.068,6.541,5.373,10.812,5.878c3.051,0.361,5.857,1.595,8.863,1.993
			c1.038,0.137,1.784,0.55,2.352,1.372c0.541,0.781,1.039,1.601,2.014,1.926l-0.01-0.041c-1.617,3.892,0.533,6.829,2.509,9.792
			c1.798,2.699,4.58,5.166,5.21,8.103c0.642,2.997,1.942,2.304,3.631,2.169c0.536-0.043,1.014-0.085,1.349,0.459
			c0.34,0.556,0.946,1.063,1.451,0.531c0.656-0.692-0.156-1.23-0.629-1.661c-0.372-0.338-0.881-0.522-1.319-0.79
			c-0.418-0.252-1.088-0.482-0.517-1.099c0.396-0.428,1.461-0.809,1.544-0.354c0.413,2.282,3.205,1.96,3.904,3.811l-0.179,0.172
			L367.137,238.977z"/>
		<path fill="none" stroke="#6600CC" stroke-miterlimit="10" d="M441.86,406.381c2.928-0.827,4.865,1.001,6.873,2.593
			c0.824,0.656,0.746,1.405-0.234,1.751c-0.478,0.169-1.857-1.363-1.201,0.654c0.316,0.973,1.262,1.395,2.293,0.683
			c0.258-0.177,0.313-0.634,0.953-0.521c0.126,2.161,1.549,3.361,3.505,4.085l-0.053,0.028c1.586,0.876,1.292,0.723,0.703,1.859
			c-1.575,3.033-2.888,1.191-4.278-0.032c-4.18-3.675-9.549-4.025-14.598-5.35c-9.484-2.485-19.212-3.801-28.726-6.132
			c-0.796-0.196-1.38-0.646-1.997-1.119c-6.398-4.913-13.674-7.91-21.524-9.446c-2.071-0.405-2.577-1.232-2.262-3.074
			c0.508-2.963,0.672-6.005,2.091-8.748c0.314-0.608,0.537-1.421,1.052-1.747c5.243-3.325,6.473-9.11,8.734-14.226
			c1.275-2.881,2.328-5.882,2.941-9.001c0.093-0.475-0.008-0.909,0.879-0.804c2.961,0.35,4.834-1.231,4.958-4.018
			c0.05-1.103,0.367-2.298,1.252-2.71c2.17-1.01,1.592-2.577,0.886-3.938c-0.64-1.237-0.663-2.09,0.446-2.886
			c0.627-0.449,0.851-1.015,0.863-1.763c0.016-0.929,0.659-1.573,1.476-1.479c2.765,0.32,5.933-0.784,8.181,1.491
			c2.13,2.158,5.19,3.457,6.092,6.852c0.447,1.687,2.054,0.872,3.07,0.385c2.117-1.014,3.234-0.861,5.038,0.247
			c1.621,0.997,2.689,2.521,4.135,3.672c1.112,0.887,3.079,2.404-0.752,2.487c1.838,1.602,3.314,2.915,4.526,4.592
			c0.661,0.915,2.413,1.091,2.745,2.415c0.52,2.075,0.764,4.22,1.119,6.335c0.928,5.53-0.057,11.243,1.601,16.703
			c0.129,0.422,0.237,0.803-0.139,1.181c-1.729,1.73-6.185,2.595-8.545,1.517c-0.98-0.447-1.964-0.53-3.38-0.664
			c0.689,3.39,2.767,5.691,5.118,7.656c0.93,0.775,1.851,1.367,1.695,2.589c-0.227,1.78,0.737,2.95,1.992,3.692
			c1.704,1.007,2.321,2.429,2.493,4.225c-0.153-0.062-0.311-0.074-0.472-0.037C441.543,406.332,441.693,406.333,441.86,406.381z"/>
		<path fill="none" stroke="#6600CC" stroke-miterlimit="10" d="M356.677,388.88c2.216-1.433,3.338,0.57,4.458,1.662
			c1.979,1.927,3.507,2.078,5.216-0.026c0.627-0.771,0.983-1.819,2.332-2.271c-0.654,2.604,0.55,3.632,2.892,3.706
			c1.477,0.047,1.946,0.601,0.867,1.891c-0.767,0.918-1.383,1.976-2.83,1.903c-2.094-0.105-3.775,0.947-5.501,1.956
			c-0.851,0.497-2.511,1.759-1.634-1.004c0.334-1.051-0.508-1.11-1.262-0.891c-2.13,0.621-4.122-0.271-4.644-2.52
			c-0.446-1.919-2.78-2.614-2.701-4.729c-3.112-0.082-3.982-3.219-6.183-4.534c-1.607-0.962-0.998-2.36-0.805-3.69
			c0.078-0.542,0.229-1.146,0.905-0.982c1.221,0.294,2.922-0.396,3.406,1.559c0.131,0.526,0.519,0.882,1.049,1.055
			C355.537,383.044,356.556,385.604,356.677,388.88z"/>
		<path fill="none" stroke="#6600CC" stroke-miterlimit="10" d="M394.077,318.499c-1.539-0.173-1.07-1.842-2.099-2.218
			c-0.357,3.477-0.104,3.817,3.014,4.042c0.038,0.157,0.161,0.398,0.1,0.463c-2.325,2.427-2.354,2.453,0.229,4.879
			c1.169,1.098,1.797,2.155,0.344,3.428c-1.604,1.404-2.718,3.047-3.125,5.191c-0.138,0.724-0.676,1.384-1.081,2.041
			c-0.376,0.608-0.901,1.123-1.679,0.97c-0.976-0.192-0.832-1.045-0.68-1.668c0.903-3.703,0.453-7.604,0.028-11.124
			c-0.398-3.29,1.209-6.38,0.068-9.541c-0.288-0.801-0.132-1.806,0.968-2.085c1.209-0.307,2.245,0.06,2.835,1.208
			C393.695,315.443,393.881,316.93,394.077,318.499z"/>
		<path fill="none" stroke="#6600CC" stroke-miterlimit="10" d="M346.464,371.401c0.442-1.651,1.368-2.097,3.088-1.658
			c2.732,0.695,5.549,1.058,8.305,1.668c0.865,0.192,1.653,0.733,2.462,1.413c-2.322,0.267-4.261,2.274-6.868,0.948
			c-1.146-0.584-2.393,0.162-3.321,0.908c-1.132,0.908-1.669,0.617-1.927-0.646c-0.237-1.149-0.681-2.124-1.786-2.675
			L346.464,371.401z"/>
		<path fill="none" stroke="#6600CC" stroke-miterlimit="10" d="M418.699,418.216c1.332-0.227,2.797-0.349,4.177-0.755
			c1.028-0.303,2.022-0.065,2.062,0.771c0.056,1.161,0.938,2.588-0.402,3.588c-1.816,1.354-6.241,0.021-7.068-2.092
			C417.035,418.622,416.646,417.549,418.699,418.216z"/>
		<path fill="none" stroke="#6600CC" stroke-miterlimit="10" d="M365.111,416.594l0.086-0.117c-0.753,0.11-1.817,0.378-1.748-0.75
			c0.078-1.252-1.137-1.404-1.425-2.244c1.032-1.566,5.009-0.211,3.912-3.902c1.969,0.274,2.659,1.683,1.186,3.06
			C365.885,413.795,365.458,415.114,365.111,416.594z"/>
		<path fill="none" stroke="#6600CC" stroke-miterlimit="10" d="M361.485,416.583c0.145,1.15-0.39,1.532-1.309,1.521
			c-0.735-0.009-1.65,0.188-1.667-0.973c-0.013-1.002,0.337-1.911,1.465-2.035C361.075,414.975,361.344,415.853,361.485,416.583z"/>
		<path fill="none" stroke="#6600CC" stroke-miterlimit="10" d="M453.996,415.654l0.051-0.031c0.068-0.494,0.065-1.016,0.224-1.481
			c0.209-0.614,0.696-0.949,1.383-0.813c0.43,0.086,0.843,0.297,0.905,0.766c0.109,0.81-0.565,0.918-1.116,1.104
			C454.963,415.357,454.479,415.503,453.996,415.654z"/>
		<path fill="none" stroke="#6600CC" stroke-miterlimit="10" d="M350.065,218.098c0.414,0.082,0.843,0.122,1.24,0.254
			c0.787,0.263,1.353,0.733,1.198,1.675c-0.069,0.42-0.202,0.96-0.692,0.931c-0.863-0.05-0.868-0.913-1.146-1.495
			c-0.218-0.458-0.405-0.931-0.608-1.401L350.065,218.098z"/>
		<path fill="none" stroke="#6600CC" stroke-miterlimit="10" d="M346.416,371.361c1.216,1.909,0.199,2.671-1.812,3.102
			c0.087-1.432,1.141-2.156,1.863-3.06L346.416,371.361z"/>
		<path fill="none" stroke="#6600CC" stroke-miterlimit="10" d="M366.658,332.062c1.674-0.868,2.062,1.041,3.124,1.485
			c-1.352,0.13-2.219-0.769-3.15-1.533L366.658,332.062z"/>
		<path fill="none" stroke="#6600CC" stroke-miterlimit="10" d="M429.412,435.688"/>
		<path fill="none" stroke="#6600CC" stroke-miterlimit="10" d="M339.257,347.931c0.67,1.07,1.526,2.068,1.973,3.226
			c1.308,3.376,3.989,4.146,7.189,4.128c0.413-0.001,0.997-0.062,1.216,0.172c2.178,2.343,4.843,1.668,7.473,1.313
			c1.645-0.222,3.273-0.02,4.873,0.337c1.419,0.316,2.864,0.018,3.37-1.196c0.594-1.429-1.028-1.619-1.971-2.14
			c-1.559-0.861-2.124-2.791-3.893-3.57c-0.675-0.298,0.106-1.207,0.7-1.104c1.451,0.251,1.615-0.317,1.858-1.628
			c0.266-1.428,3.635-1.921,5.113-0.577c1.817,1.652,3.48,0.683,4.986-0.001c1.436-0.653,1.685-2.167,1.314-3.813
			c-0.345-1.537,0.473-2.709,1.971-3.206c3.212-1.063,8.245,1.202,9.706,4.245c0.707,1.473,0.536,3.085,0.513,4.55
			c-0.089,5.412-1.184,10.583-4.997,14.787c-0.887,0.978-1.886,1.933-3.154,2.157c-4.035,0.715-7.94,1.881-12.188,1.75
			c-5.545-0.17-10.924-1.315-16.382-1.798c-4.862-0.429-9.854-5.967-10.124-10.858c-0.122-2.207-0.021-4.425-0.021-6.637
			C338.941,348.021,339.1,347.978,339.257,347.931z"/>
		<path fill="none" stroke="#6600CC" stroke-miterlimit="10" d="M384.347,454.755c-0.257,3.152-1.512,6.255,0.183,9.362
			c0.267,0.488,0.053,1.407-0.226,1.992c-0.877,1.841-2.018,3.532-2.342,5.642c-0.104,0.682-0.686,1.691-1.74,1.66
			c-1.152-0.036-1.528-0.962-1.823-1.899c-0.024-0.082-0.049-0.165-0.069-0.249c-0.384-1.575-0.48-3.508-2.583-3.694
			c-2.093-0.186-2.426,1.801-3.012,3.045c-4.151-2.438-3.938-7.562-6.885-10.794c-1.019-1.116-0.301-2.66,0.438-3.86
			c1.13-1.835,1.207-3.596,0.357-5.627c-1.382-3.304-1.439-6.661,0.506-9.852c0.751-1.232,1.751-1.785,2.934-0.633
			c1.833,1.784,3.959,3.382,4.339,6.215c0.13,0.96,0.502,1.961,1.698,1.94c1.197-0.02,1.092-1.207,1.316-1.955
			c0.425-1.414,0.558-3.021,2.602-2.896c1.839,0.113,2.631,1.242,2.997,2.987c0.295,1.412,0.995,2.724,1.054,4.225
			c0.025,0.64,0.014,1.575,0.714,1.822c0.792,0.28,1.076-0.675,1.546-1.124c0.418-0.398,0.759-0.879,1.246-1.458
			c1.042,2.249,1.103,4.324-0.361,6.011C386.029,457.001,385.703,454.376,384.347,454.755z"/>
		<path fill="none" stroke="#6600CC" stroke-miterlimit="10" d="M351.806,452.831c-2.235-0.767-2.055-3.461-4.256-4.035
			c-0.048-0.013-0.03-0.646,0.101-0.921c1.243-2.608,2.118-5.419,4.513-7.367c0.753-0.612,1.162-1.673,1.664-2.564
			c0.808-1.436,1.702-2.785,3.175-3.621c0.534-0.304,1.139-0.518,1.702-0.104c0.6,0.44,0.438,1.059,0.234,1.646
			c-0.721,2.07-1.343,4.179-2.088,6.236c-0.706,1.95-0.975,4.085-2.309,5.773c-0.565,0.715-0.909,2.218-2.517,0.896
			c-0.774-0.638-1.394,0.169-1.101,1.192C351.201,450.925,351.512,451.875,351.806,452.831z"/>
		<path fill="none" stroke="#6600CC" stroke-miterlimit="10" d="M392.032,342.436c-0.108,1.276-0.112,2.603-1.664,3.114
			c-0.79,0.261-1.51,0.151-2.145-0.384c-0.418-0.354-0.614-0.819-0.456-1.362c0.257-0.888,0.994-1.087,1.787-1.153
			c0.841-0.068,1.686-0.109,2.526-0.162L392.032,342.436z"/>
		<path fill="none" stroke="#6600CC" stroke-miterlimit="10" d="M361.567,352.971c-1.705,0.598-2.517,0.046-3.854-0.309
			C359.259,351.652,360.146,351.954,361.567,352.971z"/>
		<path fill="none" stroke="#6600CC" stroke-miterlimit="10" d="M347.398,226.559l0.076-0.079"/>
		<path fill="none" stroke="#6600CC" stroke-miterlimit="10" d="M367.137,238.977c0.113,0.474,0.472,0.973-0.039,1.393
			c-0.096,0.079-0.556-0.06-0.608-0.193c-0.258-0.647,0.301-0.866,0.701-1.157L367.137,238.977z"/>
		<path fill="none" stroke="#6600CC" stroke-miterlimit="10" d="M429.217,387.124c-0.182-0.37-0.354-0.56-0.352-0.745
			c0.007-0.46,0.26-0.796,0.739-0.856c0.288-0.036,0.515,0.167,0.392,0.442C429.834,386.324,429.556,386.633,429.217,387.124z"/>
		<path fill="none" stroke="#6600CC" stroke-miterlimit="10" d="M441.86,406.381c-0.953-0.066-1.887-0.155-1.904-1.524
			c1.004,0.133,1.301,1.046,1.923,1.554L441.86,406.381z"/>
	</g>
</g>
<g id="Layer_2">
</g>
<g id="Layer_3">
</g>
</svg>
