<?xml version="1.0" encoding="utf-8"?>
<!-- Generator: Adobe Illustrator 16.0.4, SVG Export Plug-In . SVG Version: 6.00 Build 0)  -->
<!DOCTYPE svg PUBLIC "-//W3C//DTD SVG 1.1//EN" "http://www.w3.org/Graphics/SVG/1.1/DTD/svg11.dtd">
<svg version="1.1" id="Layer_1" xmlns="http://www.w3.org/2000/svg" xmlns:xlink="http://www.w3.org/1999/xlink" x="0px" y="0px"
	 width="500px" height="500px" viewBox="0 0 500 500" enable-background="new 0 0 500 500" xml:space="preserve">
<g id="Layer_4">
	<g>
		<path fill="none" stroke="#806A8A" stroke-width="7" stroke-miterlimit="10" d="M313.963,86.497
			c1.184,0.359,2.389,0.66,3.536,1.107c0.453,0.176,0.78,0.676,1.165,1.028c-4.075,1.993,2.146,5.163-1.025,7.943
			c-1.557,1.365,0.711,3.574,3.205,3.796c1.438,0.128,3.348-1.117,4.24,0.468c1.928,3.423,6.159,5.195,6.768,9.485
			c1.028,7.255,4.271,12.682,11.631,15.169c1.887,0.637,3.746,1.552,3.668,4.63c-0.06,2.307,2.807,3.312,4.949,4.174
			c3.15,1.268,3.539,2.805,1.277,5.299c-0.669,0.736-0.722,1.617-0.236,2.26c1.364,1.816,4.596,3.742-0.699,4.61
			c-0.172,0.028,1.22,2.472-1.184,3.107c-1.1,0.292-1.849,1.882-2.326,3.635c2.646-0.239,5.301-0.4,5.262,3.676
			c2.113-1.982,3.664-3.207,5.414-0.578c0.721,1.081,0.572,1.708-0.197,2.463c-6.176,6.045-8.035,11.052-8.514,18.55
			c-0.067,1.073,0.236,2.505-1.211,2.657c-1.332,0.141-2.655-1.079-2.641-2.166c0.074-4.939-2.031-9.268-3.404-13.805
			c-0.076-0.252-0.023-0.547-0.013-0.822c0.431-9.454-1.684-12.886-10.485-17.869c-2.192-1.243-4.912-2.756-1.209-5.774
			c2.035-1.658,0.448-2.778-1.41-3.356c-3.108-0.964-5.394-3.159-7.618-5.358c-0.849-0.836-2.431-1.842-0.679-3.351
			c0.938-0.807,0.217-1.237-0.459-1.361c-2.902-0.536-3.369-2.961-4.725-5.013c-1.161-1.761-4.22-2.678-6.596-3.114
			c-2.338-0.428-4.863,0.511-7.311-0.253c-5.021-1.568-9.158,1.538-13.646,2.727c-1.018,0.269-1.807,0.139-2.758-0.066
			c-2.205-0.476-4.733-0.409-6.396,0.814c-3.841,2.831-7.847,1.334-11.879,1.489c-10.112,0.387-20.085,1.774-29.022,7.126
			c-0.462,0.276-0.998,1.083-1.234,0.987c-5.245-2.13-7.53,3.584-11.789,4.444c-4.168,0.841-7.715,3.909-11.927,5.171
			c-0.831,0.248-2.02,1.121-2.087,1.8c-0.44,4.426-2.872,8.439-2.558,13.01c0.25,3.641,0.681,7.254-0.034,10.947
			c-0.541,2.795-1.059,5.979,2.905,7.582c0.187-0.832,0.3-1.483,0.484-2.114c0.257-0.879,0.277-2.282,1.565-1.986
			c1.87,0.431,0.241,1.375,0.083,2.12c-0.266,1.254,0.642,2.016,1.3,2.873l0.047-0.065c-1.881,1.453-2.815,4.902-6.225,2.846
			c-0.88,1.167,0.416,1.825,0.372,2.752c-0.141,2.949-2.647,4.075-6.238,1.872c-1.581-0.971-2.458-0.638-3.57-0.184
			c-3.658,1.495-6.588,7.468-5.577,11.098c0.108,0.389,0.159,0.793,0.237,1.19c-5.016,0.172-1.709,7.119-6.448,7.842
			c-1.611,0.247-1.624,1.25-0.707,3.6c2.492,6.381,9.594,4.597,12.909,8.812c0.211,0.269,0.838,0.479,1.14,0.366
			c4.229-1.583,7.193,1.475,10.589,2.871c1.608,0.66,5.177-1.781,4.036,2.744c1.663,0.034,1.703-2.309,1.934-1.723
			c1.301,3.305,5.077,1.727,6.909,3.897c1.07,1.267,2.452,2.839,4.563,1.348c0.702-0.496,1.319-0.239,1.589,0.591
			c1.861,5.718,2.974,1.058,4.305-0.316c0.269-0.276,0.454-0.634,0.845-1.192c1.556,1.944,2.88,3.823,3.706,6.009
			c0.496,1.313,0.997,2.808,2.285,3.299c3.186,1.215,4.039,3.286,2.585,6.668c3.946-1.309,5.291,0.046,4.521,3.614
			c-0.476,2.209,0.065,4.013,2.488,4.324c2.744,0.351,5.725,1.41,8.006-1.406c0.751-0.928-0.658-3.743,2.427-2.801
			c0.28,0.085,0.011-1.241-0.424-1.695c-1.115-1.166-2.326-2.238-3.447-3.297c2.92-3.894,8.082-3.242,11.321-6.392
			c1.109-1.081,3.725-1.127,5.542-0.868c4.069,0.579,7.862-1.243,11.6-1.264c7.276-0.04,14.738-1.665,21.917,0.919
			c2.213,0.797,1.344,4.152,3.815,4.812l-0.046-0.082c0.056,0.682,0.367,1.478,0.127,2.03c-1.684,3.837,0.654,5.18,3.611,4.76
			c6.198-0.88,11.223,3.124,17.104,3.472c2.963,0.175,5.995,0.655,8.945,0.876c4.596,0.344,8.191,1.764,10.795,5.565
			c-0.447,0.49-0.604,1.158-1.021,1.667c0.408-0.531,0.614-1.173,0.942-1.749c1.312,1.033,1.605,2.511,1.716,4.043
			c0.617,8.62-0.837,16.748-5.712,24.062c-0.307-0.039-0.712,0.014-0.782-0.116c-2.478-4.52-2.44-4.449-5.62-0.479
			c-2.393,2.986-3.576,6.896-6.881,9.166c-5.952,4.092-12.82,5.57-19.795,6.266c-7.895,0.785-15.938,0.756-23.68-0.689
			c-5.721-1.066-11.529-2.126-17.148-3.748c-2.85-0.824-4.622-3.354-6.094-5.877c-3.135-5.369-5.284-11.142-6.93-17.127
			c-1.086-3.951-3.976-6.037-7.763-7.21c-3.452-1.067-6.239,0.902-7.368,3.195c-2.82,5.728-7.005,11.241-5.349,18.381
			c0.275,1.188,2.263,2.925-0.854,3.888c-0.624,0.192,1.235,3.24,1.981,4.582c2.859,5.137,0.002,8.979-2.038,13.01
			c-0.535,1.059-0.903,1.531-0.37,2.757c0.655,1.505,3.326,1.925,2.252,4.449c-0.247,0.579,1.024,0.213,1.649,0.146
			c3.005-0.318,6.109,0.352,8.007,2.419c3.646,3.979,8.029,4.636,12.908,4.332c2.157-0.134,4.106,0.146,5.437,2.146
			c1.342,2.021-0.759,2.832-1.312,4.223c-1.023,2.568-1.688,6.047-4.322,6.654c-6.125,1.411-7.562,6.517-10.016,10.904
			c-1.247,2.229-2.784,3.335-5.357,2.366c-1.172-0.438-2.403-0.759-3.628-0.367c-1.411,0.451-3.586,1.004-3,2.688
			c0.732,2.104,2.151,0.219,3.26-0.297c0.449-0.209,0.987-0.229,1.484-0.334c0.316,4.052,3.661,2.096,5.351,2.243
			c6.954,0.614,13.416,3.573,20.477,3.753c4.963,0.122,9.371,0.815,13.683-3.287c3.022-2.875,8.255-3.332,12.447-3.155
			c2.726,0.114,2.372,3.866,1.729,6.512c-1.33,5.464-2.998,10.77-6.609,15.404c-3.473-3.207-7.276-6.573-12.717-6.854
			c-0.676-0.034-1.572-0.478-1.985-0.188c-4.593,3.229-9.882,1.406-14.802,2.165c-0.812,0.125-1.737,0.073-2.409,0.458
			c-1.813,1.035-4.86,1.645-4.308,4.18c0.492,2.248,3.355,1.289,5.114,1.202c2.44-0.122,4.575-0.802,2.777,2.997
			c-0.742,1.57,0.034,2.916,2.116,2.996c1.197,0.046,2.16,0.578,2.267,1.927c0.097,1.233-0.646,1.963-1.625,2.643
			c-3.61,2.508-7.454,4.541-9.349,9.125c-2.061,4.981-7.434,4.327-11.515,4.469c-5.693,0.197-8.77,5.025-13.705,6.385
			c-1.82,0.5-0.979,2.64-0.389,3.991c0.92,2.104,2.028,4.132,3.117,6.157c0.157,0.292,0.842,0.65,0.959,0.562
			c2.698-2.092,4.916,0.801,6.861,0.746c6.672-0.19,12.347,3.161,18.64,3.948c0.994,0.125,2.258,0.339,2.729-0.408
			c1.994-3.17,5.166-2.951,8.239-3.396c2.125-0.307,3.825-1.812,4.601-3.773c1.896-4.812,3.924-9.408,7.916-13.013
			c1.906-1.722,1.289-3.182-0.895-4.354c-0.48-0.259-0.896-1.107-0.911-1.699c-0.077-2.93,2.406-4.876,3.099-7.604
			c0.271-1.062,4.129,0.894,4.072,2.695c-0.062,2.022-0.619,3.791,2.316,4.174c2.675,0.348,4.911,0.27,5.604-2.903
			c1.433,0.595,1.123,2.631,3.492,2.354c-0.037-0.47,5.145-15.107,5.78-15.41l0.228-0.223c0.477-0.454,0,0,0,0
			c-0.867,0.613,0.098,6.954,4.946,4.671c2.504-1.179,0.668-3.379,1.29-5.049c0.084-0.224-0.027-0.541-0.104-0.799
			c-0.42-1.458-3.225,1.909-2.604-1.19c0.236-1.18,1.833-2.025,2.359-3.224c0.472-1.065,0.342-2.404,0.438-3.625
			c0.077-0.96-0.026-2.229,1.192-2.298c1.564-0.089,1.29,1.5,1.562,2.454c0.381,1.326-0.521,2.344-1.08,3.434
			c-0.381,0.736-0.801,1.601-0.135,2.296c0.774,0.811,1.506,0.061,2.157-0.383c3.396-2.31,5.923-1.224,7.924,1.988
			c0.515,0.825,1.036,1.827,2.195,1.403c1.298-0.479,1.252-1.729,1.034-2.82c-0.49-2.493-2.16-4.422-3.377-6.559
			c-0.767-1.349-1.666-2.71-1.077-4.238c1.61-4.2,3.31-8.373,5.14-12.484c0.967-2.17,3.201-2.271,5.004-1.75
			c2.233,0.646,3.729,2.597,3.792,4.924c0.108,3.888,2.503,7.108,2.685,11.007c0.125,2.68,2.854,3.387,5.348,4.444
			c0.118-3.286,0.314-6.473-0.904-9.315c-1.265-2.951,0.432-4.436,2.162-5.955c1.92-1.688,4.215-2.1,6.465-0.648
			c1.256,0.81,2.619,1.752,3.371,2.979c1.734,2.828,4.407,3.916,7.319,3.791c3.858-0.166,5.848,2.155,7.873,4.696
			c3.573,4.485,6.639,8.875,7.463,15.105c0.847,6.404,6.935,8.668,12.722,10.176c1.853,0.482,3.812,0.677,5.562,1.396
			c2.689,1.104,2.899,3.434,3.004,6.142c0.104,2.769-1.444,3.376-3.33,3.618c-2.974,0.384-2.925,3.59-4.896,4.936
			c-0.409,0.281,0.404,2.532,1.722,2.822c2.352,0.521,4.234,1.945,6.387,2.83c1.679,0.688,2.903,0.889,4.083-1.147
			c0.969-1.67,4.902-0.021,5.555-2.723l-0.709-0.454c0.913,0.818,1.851,0.737,2.444-0.262c3.316-5.562,9.241-3.773,13.979-4.484
			c3.834-0.575,4.828,3.501,2.441,7.444c-10.116,16.714-24.141,29.754-39.191,41.801c-29.563,23.659-62.994,39.078-100.131,46.401
			c-5.354,1.057-10.733,2.207-16.656,2.104c3.1-6.632,2.812-14.301,7.242-20.542c1.322-1.864,0.801-4.796,2.521-6.807
			c0.506-0.592,0.493-1.727-0.327-2.207c-1.188-0.698-2.237,0.094-2.819,0.987c-2.342,3.598-5.93,6.126-8.305,9.626
			c-4.666,6.879-11.059,12.19-16.314,18.521c-2.076,2.499-4.99,2.736-7.909,2.672c-47.867-1.057-91.871-14.241-131.238-41.913
			c-26.538-18.653-48.448-41.699-65.553-69.284c-0.505-0.813-0.969-1.656-1.404-2.512c-0.177-0.349-0.224-0.764-0.321-1.116
			c1.334-0.257,2.603-0.646,3.883-0.69c0.721-0.023,1.684,0.902,2-0.327c0.298-1.166-0.786-1.993-1.697-1.847
			c-7.336,1.188-9.289-4.529-11.761-9.263c-13.503-25.854-22.571-53.146-26.883-82.057c-1.868-12.524-3.057-25.121-2.95-37.701
			c0.141-16.558,1.69-33.078,4.956-49.395c7.687-38.416,23.241-73.297,46.949-104.46c17.898-23.526,39.458-43.094,64.711-58.554
			c15.156-9.279,31.102-16.829,47.961-22.455c2.478-0.827,4.949-1.479,8.047-0.994c-1.371,1.808-2.604,3.652,0.259,4.891
			c-0.752,1.606,2.694,4.286-1.274,5.045c-0.666,0.127-1.185,0.43-0.862,1.005c1.639,2.927-0.592,5.27-1.068,7.87
			c-0.235,1.284-0.166,2.486,1.054,3.307c1.287,0.867,1.916,0.303,2.433-0.974c0.293-0.724,1.479-0.92,1.715-0.376
			c1.223,2.82,5.077,1.7,6.446,4.855c1.037,2.388,3.79,1.613,5.572-0.172c1.701-1.704,3.275-2.638,5.775-1.229
			c2.268,1.279,3.898-0.314,4.266-2.37c1.18-6.603,5.226-8.06,11.259-7.301c3.515,0.443,6.998-0.655,10.338-2.029
			c2.579-1.061,5.176-0.706,7.332,1.169c0.671,0.583,1.502,1.734,1.33,2.376c-0.336,1.253-1.779,1.033-2.83,0.911
			c-1.058-0.123-2.207,0.243-3.335-0.571c1.707,3.297,2.017,6.925,4.62,9.857c1.401,1.578,2.418,2.527,4.235,1.991
			c1.966-0.579,3.921-1.48,3.77-4.168c-0.028-0.494,0.267-1.006,0.425-1.552c5.805,3.298,10.431,8.568,17.244,9.374
			c4.862,0.576,9.34,2.543,14.133,3.178c1.654,0.219,2.845,0.877,3.75,2.188c0.861,1.245,1.656,2.553,3.211,3.071l-0.016-0.064
			c-2.58,6.206,0.85,10.889,3.998,15.614c2.867,4.304,7.305,8.238,8.309,12.921c1.023,4.778,3.098,3.674,5.791,3.458
			c0.854-0.068,1.615-0.136,2.148,0.733c0.543,0.886,1.51,1.695,2.314,0.846c1.047-1.104-0.249-1.962-1.004-2.649
			c-0.594-0.539-1.403-0.833-2.104-1.258c-0.665-0.403-1.732-0.769-0.822-1.753c0.631-0.683,2.33-1.29,2.461-0.565
			c0.658,3.638,5.111,3.126,6.228,6.076l-0.286,0.274L313.963,86.497z"/>
		<path fill="none" stroke="#806A8A" stroke-width="7" stroke-miterlimit="10" d="M433.114,353.434
			c4.668-1.318,7.758,1.597,10.96,4.136c1.313,1.045,1.188,2.239-0.374,2.791c-0.762,0.27-2.962-2.175-1.916,1.043
			c0.505,1.552,2.012,2.224,3.657,1.09c0.409-0.282,0.499-1.012,1.52-0.831c0.2,3.446,2.47,5.359,5.588,6.515l-0.083,0.045
			c2.528,1.396,2.062,1.152,1.12,2.966c-2.511,4.836-4.604,1.898-6.821-0.053c-6.664-5.859-15.226-6.419-23.276-8.529
			c-15.123-3.964-30.635-6.062-45.805-9.777c-1.271-0.312-2.201-1.031-3.186-1.785c-10.202-7.834-21.803-12.613-34.321-15.062
			c-3.303-0.646-4.108-1.966-3.606-4.902c0.811-4.726,1.07-9.575,3.334-13.948c0.502-0.971,0.857-2.267,1.678-2.787
			c8.359-5.301,10.32-14.525,13.928-22.683c2.033-4.595,3.713-9.379,4.69-14.354c0.147-0.756-0.015-1.449,1.399-1.281
			c4.724,0.559,7.709-1.963,7.907-6.405c0.079-1.759,0.585-3.663,1.995-4.32c3.46-1.61,2.539-4.108,1.413-6.278
			c-1.021-1.975-1.058-3.332,0.711-4.603c1-0.716,1.356-1.618,1.377-2.812c0.024-1.479,1.052-2.507,2.353-2.356
			c4.41,0.51,9.461-1.251,13.045,2.378c3.396,3.439,8.276,5.514,9.715,10.925c0.714,2.689,3.274,1.392,4.896,0.614
			c3.375-1.617,5.156-1.374,8.032,0.395c2.586,1.59,4.289,4.021,6.594,5.854c1.773,1.413,4.91,3.833-1.197,3.966
			c2.93,2.555,5.284,4.646,7.217,7.321c1.055,1.459,3.849,1.739,4.377,3.853c0.829,3.309,1.218,6.729,1.784,10.102
			c1.479,8.818-0.089,17.928,2.553,26.634c0.205,0.673,0.379,1.28-0.221,1.883c-2.757,2.759-9.862,4.138-13.626,2.419
			c-1.562-0.714-3.132-0.847-5.391-1.06c1.102,5.405,4.412,9.075,8.162,12.208c1.481,1.235,2.95,2.18,2.703,4.128
			c-0.361,2.84,1.175,4.704,3.177,5.888c2.717,1.605,3.701,3.874,3.977,6.737c-0.245-0.099-0.496-0.118-0.753-0.061
			C432.608,353.355,432.848,353.357,433.114,353.434z"/>
		<path fill="none" stroke="#806A8A" stroke-width="7" stroke-miterlimit="10" d="M297.283,325.527
			c3.533-2.284,5.322,0.907,7.109,2.648c3.154,3.072,5.59,3.314,8.315-0.042c1-1.229,1.567-2.899,3.719-3.621
			c-1.044,4.152,0.876,5.791,4.611,5.909c2.354,0.074,3.104,0.958,1.382,3.016c-1.223,1.463-2.204,3.148-4.512,3.034
			c-3.34-0.168-6.021,1.511-8.772,3.118c-1.354,0.794-4.004,2.807-2.604-1.6c0.532-1.677-0.81-1.771-2.013-1.421
			c-3.396,0.989-6.572-0.433-7.404-4.019c-0.711-3.06-4.434-4.168-4.307-7.539c-4.965-0.131-6.352-5.133-9.859-7.23
			c-2.562-1.533-1.592-3.764-1.283-5.884c0.125-0.864,0.365-1.828,1.443-1.567c1.947,0.47,4.66-0.632,5.433,2.485
			c0.208,0.84,0.827,1.405,1.672,1.682C295.467,316.221,297.09,320.305,297.283,325.527z"/>
		<path fill="none" stroke="#806A8A" stroke-width="7" stroke-miterlimit="10" d="M356.921,213.3
			c-2.454-0.275-1.706-2.937-3.346-3.537c-0.57,5.544-0.165,6.087,4.805,6.446c0.062,0.25,0.257,0.635,0.158,0.738
			c-3.707,3.869-3.753,3.911,0.364,7.779c1.865,1.751,2.865,3.438,0.549,5.467c-2.557,2.238-4.334,4.858-4.983,8.277
			c-0.22,1.154-1.077,2.207-1.724,3.255c-0.6,0.971-1.438,1.79-2.676,1.546c-1.557-0.307-1.327-1.666-1.086-2.66
			c1.441-5.904,0.725-12.124,0.045-17.738c-0.635-5.245,1.93-10.173,0.111-15.213c-0.461-1.277-0.212-2.879,1.541-3.325
			c1.93-0.489,3.58,0.095,4.521,1.926C356.312,208.428,356.607,210.797,356.921,213.3z"/>
		<path fill="none" stroke="#806A8A" stroke-width="7" stroke-miterlimit="10" d="M280.999,297.656
			c0.704-2.633,2.181-3.344,4.924-2.645c4.356,1.107,8.847,1.687,13.241,2.659c1.381,0.308,2.638,1.17,3.927,2.254
			c-3.704,0.425-6.794,3.626-10.952,1.513c-1.828-0.933-3.814,0.258-5.297,1.446c-1.805,1.449-2.66,0.984-3.072-1.028
			c-0.377-1.832-1.084-3.387-2.847-4.266L280.999,297.656z"/>
		<path fill="none" stroke="#806A8A" stroke-width="7" stroke-miterlimit="10" d="M396.182,372.305
			c2.125-0.36,4.46-0.556,6.66-1.203c1.642-0.481,3.227-0.104,3.289,1.229c0.089,1.852,1.497,4.126-0.642,5.721
			c-2.896,2.16-9.951,0.033-11.271-3.335C393.529,372.953,392.908,371.241,396.182,372.305z"/>
		<path fill="none" stroke="#806A8A" stroke-width="7" stroke-miterlimit="10" d="M310.732,369.719l0.138-0.188
			c-1.201,0.177-2.897,0.604-2.787-1.195c0.124-1.997-1.813-2.24-2.272-3.579c1.646-2.498,7.986-0.336,6.238-6.223
			c3.139,0.438,4.24,2.684,1.891,4.879C311.966,365.256,311.285,367.359,310.732,369.719z"/>
		<path fill="none" stroke="#806A8A" stroke-width="7" stroke-miterlimit="10" d="M304.951,369.701
			c0.23,1.835-0.621,2.442-2.086,2.426c-1.174-0.014-2.633,0.3-2.658-1.551c-0.021-1.599,0.536-3.047,2.336-3.245
			C304.298,367.137,304.725,368.537,304.951,369.701z"/>
		<path fill="none" stroke="#806A8A" stroke-width="7" stroke-miterlimit="10" d="M452.466,368.221l0.081-0.051
			c0.109-0.787,0.104-1.619,0.355-2.361c0.334-0.979,1.109-1.514,2.205-1.297c0.687,0.138,1.344,0.474,1.443,1.222
			c0.174,1.291-0.9,1.463-1.779,1.76C454.008,367.747,453.234,367.979,452.466,368.221z"/>
		<path fill="none" stroke="#806A8A" stroke-width="7" stroke-miterlimit="10" d="M286.741,53.204
			c0.661,0.131,1.344,0.194,1.978,0.406c1.256,0.419,2.156,1.17,1.91,2.671c-0.109,0.67-0.322,1.531-1.104,1.485
			c-1.377-0.079-1.385-1.456-1.826-2.384c-0.348-0.73-0.646-1.484-0.971-2.234L286.741,53.204z"/>
		<path fill="none" stroke="#806A8A" stroke-width="7" stroke-miterlimit="10" d="M280.923,297.592
			c1.938,3.045,0.316,4.26-2.891,4.946c0.138-2.283,1.819-3.438,2.971-4.879L280.923,297.592z"/>
		<path fill="none" stroke="#806A8A" stroke-width="7" stroke-miterlimit="10" d="M313.2,234.928
			c2.669-1.385,3.286,1.66,4.981,2.369c-2.156,0.207-3.539-1.226-5.024-2.446L313.2,234.928z"/>
		<path fill="none" stroke="#806A8A" stroke-width="7" stroke-miterlimit="10" d="M413.265,400.166"/>
		<path fill="none" stroke="#806A8A" stroke-width="7" stroke-miterlimit="10" d="M269.507,260.23
			c1.067,1.707,2.433,3.299,3.146,5.144c2.084,5.383,6.361,6.612,11.465,6.583c0.658-0.003,1.59-0.1,1.938,0.273
			c3.473,3.735,7.723,2.66,11.915,2.095c2.622-0.354,5.22-0.032,7.771,0.536c2.262,0.505,4.567,0.029,5.374-1.907
			c0.945-2.278-1.641-2.581-3.143-3.411c-2.486-1.373-3.389-4.45-6.207-5.693c-1.076-0.475,0.17-1.925,1.114-1.761
			c2.313,0.399,2.577-0.507,2.965-2.597c0.423-2.276,5.796-3.062,8.152-0.92c2.897,2.635,5.551,1.088,7.952-0.002
			c2.289-1.041,2.686-3.455,2.096-6.08c-0.55-2.451,0.754-4.32,3.143-5.112c5.121-1.697,13.146,1.917,15.478,6.769
			c1.127,2.35,0.854,4.92,0.817,7.256c-0.143,8.631-1.888,16.875-7.969,23.578c-1.414,1.56-3.008,3.082-5.029,3.439
			c-6.436,1.141-12.662,2.999-19.436,2.791c-8.842-0.271-17.419-2.098-26.123-2.865c-7.753-0.686-15.714-9.517-16.145-17.315
			c-0.193-3.519-0.032-7.056-0.032-10.582C269.003,260.375,269.255,260.305,269.507,260.23z"/>
		<path fill="none" stroke="#806A8A" stroke-width="7" stroke-miterlimit="10" d="M341.404,430.568
			c-0.409,5.026-2.41,9.975,0.291,14.929c0.426,0.778,0.084,2.245-0.359,3.177c-1.398,2.937-3.217,5.633-3.732,8.997
			c-0.168,1.087-1.094,2.696-2.774,2.646c-1.839-0.059-2.438-1.534-2.907-3.029c-0.04-0.131-0.079-0.263-0.111-0.396
			c-0.611-2.512-0.766-5.593-4.119-5.891c-3.336-0.296-3.867,2.871-4.803,4.854c-6.619-3.887-6.279-12.058-10.978-17.212
			c-1.624-1.778-0.479-4.24,0.698-6.154c1.803-2.926,1.926-5.733,0.57-8.974c-2.203-5.268-2.296-10.622,0.807-15.709
			c1.197-1.966,2.791-2.847,4.679-1.01c2.922,2.845,6.312,5.394,6.919,9.911c0.206,1.53,0.8,3.126,2.707,3.094
			c1.91-0.03,1.741-1.926,2.1-3.117c0.678-2.255,0.891-4.816,4.147-4.616c2.933,0.181,4.196,1.979,4.778,4.763
			c0.472,2.252,1.588,4.343,1.682,6.736c0.041,1.021,0.021,2.512,1.139,2.905c1.264,0.447,1.717-1.075,2.465-1.792
			c0.666-0.637,1.211-1.4,1.986-2.325c1.662,3.587,1.76,6.896-0.576,9.585C344.089,434.15,343.566,429.965,341.404,430.568z"/>
		<path fill="none" stroke="#806A8A" stroke-width="7" stroke-miterlimit="10" d="M289.516,427.501
			c-3.563-1.222-3.274-5.519-6.785-6.435c-0.076-0.021-0.049-1.029,0.16-1.47c1.982-4.158,3.377-8.64,7.195-11.746
			c1.201-0.977,1.854-2.668,2.653-4.09c1.288-2.289,2.715-4.439,5.062-5.773c0.853-0.483,1.814-0.824,2.714-0.165
			c0.957,0.703,0.699,1.688,0.375,2.624c-1.15,3.301-2.144,6.663-3.33,9.943c-1.125,3.11-1.555,6.515-3.683,9.206
			c-0.899,1.142-1.448,3.536-4.012,1.431c-1.235-1.018-2.224,0.27-1.757,1.9C288.553,424.461,289.047,425.977,289.516,427.501z"/>
		<path fill="none" stroke="#806A8A" stroke-width="7" stroke-miterlimit="10" d="M353.66,251.468
			c-0.174,2.035-0.18,4.15-2.653,4.966c-1.261,0.416-2.407,0.242-3.42-0.61c-0.667-0.564-0.979-1.308-0.728-2.173
			c0.41-1.416,1.584-1.732,2.85-1.84c1.341-0.108,2.688-0.174,4.029-0.259L353.66,251.468z"/>
		<path fill="none" stroke="#806A8A" stroke-width="7" stroke-miterlimit="10" d="M305.082,268.268
			c-2.719,0.953-4.014,0.073-6.145-0.492C301.4,266.165,302.814,266.646,305.082,268.268z"/>
		<path fill="none" stroke="#806A8A" stroke-width="7" stroke-miterlimit="10" d="M282.489,66.695l0.12-0.126"/>
		<path fill="none" stroke="#806A8A" stroke-width="7" stroke-miterlimit="10" d="M313.963,86.497
			c0.182,0.755,0.752,1.552-0.062,2.221c-0.152,0.126-0.885-0.096-0.971-0.309c-0.41-1.031,0.48-1.381,1.119-1.844L313.963,86.497z"
			/>
		<path fill="none" stroke="#806A8A" stroke-width="7" stroke-miterlimit="10" d="M412.954,322.727
			c-0.29-0.59-0.564-0.892-0.562-1.188c0.013-0.733,0.415-1.27,1.181-1.364c0.459-0.059,0.819,0.267,0.623,0.704
			C413.938,321.452,413.494,321.943,412.954,322.727z"/>
		<path fill="none" stroke="#806A8A" stroke-width="7" stroke-miterlimit="10" d="M433.114,353.434
			c-1.521-0.105-3.009-0.248-3.036-2.431c1.601,0.211,2.073,1.667,3.065,2.479L433.114,353.434z"/>
	</g>
</g>
<g id="Layer_2">
</g>
<g id="Layer_3">
</g>
</svg>
